<mxfile host="app.diagrams.net" agent="Mozilla/5.0 (Windows NT 10.0; Win64; x64) AppleWebKit/537.36 (KHTML, like Gecko) Chrome/139.0.0.0 Safari/537.36 Edg/139.0.0.0" version="28.1.1">
  <diagram name="Page-1" id="hnliXG5YRL3d3dUrOnFt">
    <mxGraphModel dx="1477" dy="920" grid="1" gridSize="10" guides="1" tooltips="1" connect="1" arrows="1" fold="1" page="1" pageScale="1" pageWidth="827" pageHeight="1169" math="0" shadow="0">
      <root>
        <mxCell id="0" />
        <mxCell id="1" parent="0" />
        <mxCell id="baI93Eb9KqTFqQ3-h29e-1" value="" style="shape=offPageConnector;whiteSpace=wrap;html=1;rounded=0;glass=0;fillStyle=solid;align=center;verticalAlign=middle;fontFamily=Helvetica;fontSize=12;fontColor=default;labelBackgroundColor=none;fillColor=light-dark(#c4ccd6, #dbdbff);gradientColor=none;gradientDirection=east;strokeColor=none;rotation=-180;size=0.16;" parent="1" vertex="1">
          <mxGeometry x="181.63" y="70.00000000000003" width="494.63" height="510" as="geometry" />
        </mxCell>
        <mxCell id="baI93Eb9KqTFqQ3-h29e-2" value="" style="shape=offPageConnector;whiteSpace=wrap;html=1;rounded=0;glass=0;fillStyle=solid;align=center;verticalAlign=middle;fontFamily=Helvetica;fontSize=12;fontColor=default;labelBackgroundColor=none;fillColor=light-dark(#90a5b1, #dbdbff);gradientColor=none;gradientDirection=east;strokeColor=none;rotation=-180;size=0.6153846153846154;" parent="1" vertex="1">
          <mxGeometry x="170" y="190.00000000000003" width="513" height="390" as="geometry" />
        </mxCell>
        <mxCell id="baI93Eb9KqTFqQ3-h29e-3" value="" style="rounded=0;whiteSpace=wrap;html=1;textShadow=0;fillColor=#FFFFFF;strokeColor=none;gradientColor=none;gradientDirection=east;fillStyle=solid;glass=0;" parent="1" vertex="1">
          <mxGeometry x="201.63" y="180.00000000000003" width="455.37" height="380" as="geometry" />
        </mxCell>
        <mxCell id="baI93Eb9KqTFqQ3-h29e-4" value="&lt;span style=&quot;font-family: -apple-system, BlinkMacSystemFont, &amp;quot;Segoe UI&amp;quot;, Roboto, Oxygen, Ubuntu, &amp;quot;Fira Sans&amp;quot;, &amp;quot;Droid Sans&amp;quot;, &amp;quot;Helvetica Neue&amp;quot;, sans-serif;&quot;&gt;&lt;font style=&quot;color: rgb(0, 204, 0);&quot;&gt;&lt;b style=&quot;&quot;&gt;✓&lt;/b&gt;&lt;/font&gt;&lt;/span&gt;&lt;span style=&quot;font-family: -apple-system, BlinkMacSystemFont, &amp;quot;Segoe UI&amp;quot;, Roboto, Oxygen, Ubuntu, &amp;quot;Fira Sans&amp;quot;, &amp;quot;Droid Sans&amp;quot;, &amp;quot;Helvetica Neue&amp;quot;, sans-serif;&quot;&gt;&lt;b&gt; &lt;/b&gt;Centralized Data Governance&lt;/span&gt;&lt;br&gt;&lt;font style=&quot;color: rgb(0, 204, 0);&quot;&gt;&lt;span style=&quot;font-family: -apple-system, BlinkMacSystemFont, &amp;quot;Segoe UI&amp;quot;, Roboto, Oxygen, Ubuntu, &amp;quot;Fira Sans&amp;quot;, &amp;quot;Droid Sans&amp;quot;, &amp;quot;Helvetica Neue&amp;quot;, sans-serif;&quot;&gt;&lt;font&gt;&lt;b&gt;✓&lt;/b&gt;&lt;/font&gt;&lt;/span&gt;&lt;span style=&quot;font-family: -apple-system, BlinkMacSystemFont, &amp;quot;Segoe UI&amp;quot;, Roboto, Oxygen, Ubuntu, &amp;quot;Fira Sans&amp;quot;, &amp;quot;Droid Sans&amp;quot;, &amp;quot;Helvetica Neue&amp;quot;, sans-serif;&quot;&gt;&lt;b&gt;&amp;nbsp;&lt;/b&gt;&lt;/span&gt;&lt;/font&gt;&lt;span style=&quot;font-family: -apple-system, BlinkMacSystemFont, &amp;quot;Segoe UI&amp;quot;, Roboto, Oxygen, Ubuntu, &amp;quot;Fira Sans&amp;quot;, &amp;quot;Droid Sans&amp;quot;, &amp;quot;Helvetica Neue&amp;quot;, sans-serif;&quot;&gt;Enhanced Data Discoverability&lt;/span&gt;&lt;br&gt;&lt;font style=&quot;color: rgb(0, 204, 0);&quot;&gt;&lt;span style=&quot;font-family: -apple-system, BlinkMacSystemFont, &amp;quot;Segoe UI&amp;quot;, Roboto, Oxygen, Ubuntu, &amp;quot;Fira Sans&amp;quot;, &amp;quot;Droid Sans&amp;quot;, &amp;quot;Helvetica Neue&amp;quot;, sans-serif;&quot;&gt;&lt;font&gt;&lt;b&gt;✓&lt;/b&gt;&lt;/font&gt;&lt;/span&gt;&lt;span style=&quot;font-family: -apple-system, BlinkMacSystemFont, &amp;quot;Segoe UI&amp;quot;, Roboto, Oxygen, Ubuntu, &amp;quot;Fira Sans&amp;quot;, &amp;quot;Droid Sans&amp;quot;, &amp;quot;Helvetica Neue&amp;quot;, sans-serif;&quot;&gt;&lt;b&gt;&amp;nbsp;&lt;/b&gt;&lt;/span&gt;&lt;/font&gt;&lt;span style=&quot;font-family: -apple-system, BlinkMacSystemFont, &amp;quot;Segoe UI&amp;quot;, Roboto, Oxygen, Ubuntu, &amp;quot;Fira Sans&amp;quot;, &amp;quot;Droid Sans&amp;quot;, &amp;quot;Helvetica Neue&amp;quot;, sans-serif;&quot;&gt;Streamlined Collaboration&lt;/span&gt;&lt;br&gt;&lt;font style=&quot;color: rgb(0, 204, 0);&quot;&gt;&lt;span style=&quot;font-family: -apple-system, BlinkMacSystemFont, &amp;quot;Segoe UI&amp;quot;, Roboto, Oxygen, Ubuntu, &amp;quot;Fira Sans&amp;quot;, &amp;quot;Droid Sans&amp;quot;, &amp;quot;Helvetica Neue&amp;quot;, sans-serif;&quot;&gt;&lt;font&gt;&lt;b&gt;✓&lt;/b&gt;&lt;/font&gt;&lt;/span&gt;&lt;span style=&quot;font-family: -apple-system, BlinkMacSystemFont, &amp;quot;Segoe UI&amp;quot;, Roboto, Oxygen, Ubuntu, &amp;quot;Fira Sans&amp;quot;, &amp;quot;Droid Sans&amp;quot;, &amp;quot;Helvetica Neue&amp;quot;, sans-serif;&quot;&gt;&lt;b&gt;&amp;nbsp;&lt;/b&gt;&lt;/span&gt;&lt;/font&gt;&lt;span style=&quot;font-family: -apple-system, BlinkMacSystemFont, &amp;quot;Segoe UI&amp;quot;, Roboto, Oxygen, Ubuntu, &amp;quot;Fira Sans&amp;quot;, &amp;quot;Droid Sans&amp;quot;, &amp;quot;Helvetica Neue&amp;quot;, sans-serif;&quot;&gt;Optimized Data Consumption&lt;br&gt;&lt;br&gt;&lt;br&gt;&lt;/span&gt;" style="text;whiteSpace=wrap;html=1;labelBackgroundColor=none;fontColor=#000000;fontSize=14;" parent="1" vertex="1">
          <mxGeometry x="697" y="500" width="210" height="80" as="geometry" />
        </mxCell>
        <mxCell id="baI93Eb9KqTFqQ3-h29e-6" value="" style="rounded=0;whiteSpace=wrap;html=1;textShadow=0;fillColor=light-dark(#e5eaf1, #272727);strokeColor=none;gradientColor=none;gradientDirection=east;" parent="1" vertex="1">
          <mxGeometry x="211.63" y="470" width="435.37" height="80" as="geometry" />
        </mxCell>
        <mxCell id="baI93Eb9KqTFqQ3-h29e-7" value="&lt;strong style=&quot;--tw-border-spacing-x: 0; --tw-border-spacing-y: 0; --tw-translate-x: 0; --tw-translate-y: 0; --tw-rotate: 0; --tw-skew-x: 0; --tw-skew-y: 0; --tw-scale-x: 1; --tw-scale-y: 1; --tw-pan-x: ; --tw-pan-y: ; --tw-pinch-zoom: ; --tw-scroll-snap-strictness: proximity; --tw-gradient-from-position: ; --tw-gradient-via-position: ; --tw-gradient-to-position: ; --tw-ordinal: ; --tw-slashed-zero: ; --tw-numeric-figure: ; --tw-numeric-spacing: ; --tw-numeric-fraction: ; --tw-ring-inset: ; --tw-ring-offset-width: 0px; --tw-ring-offset-color: #fff; --tw-ring-color: rgba(59,130,246,.5); --tw-ring-offset-shadow: 0 0 #0000; --tw-ring-shadow: 0 0 #0000; --tw-shadow: 0 0 #0000; --tw-shadow-colored: 0 0 #0000; --tw-blur: ; --tw-brightness: ; --tw-contrast: ; --tw-grayscale: ; --tw-hue-rotate: ; --tw-invert: ; --tw-saturate: ; --tw-sepia: ; --tw-drop-shadow: ; --tw-backdrop-blur: ; --tw-backdrop-brightness: ; --tw-backdrop-contrast: ; --tw-backdrop-grayscale: ; --tw-backdrop-hue-rotate: ; --tw-backdrop-invert: ; --tw-backdrop-opacity: ; --tw-backdrop-saturate: ; --tw-backdrop-sepia: ; --tw-contain-size: ; --tw-contain-layout: ; --tw-contain-paint: ; --tw-contain-style: ; box-sizing: border-box; border: 0px solid rgb(229, 231, 235); scrollbar-color: auto; scrollbar-width: auto; color: rgb(17, 24, 39); font-style: normal; font-variant-ligatures: normal; font-variant-caps: normal; letter-spacing: normal; orphans: 2; text-align: left; text-indent: 0px; text-transform: none; widows: 2; word-spacing: 0px; -webkit-text-stroke-width: 0px; white-space: normal; text-decoration-thickness: initial; text-decoration-style: initial; text-decoration-color: initial;&quot;&gt;Data Sources&lt;/strong&gt;" style="text;whiteSpace=wrap;html=1;labelBackgroundColor=none;fontSize=12;fontStyle=1;fontFamily=Tahoma;verticalAlign=middle;" parent="1" vertex="1">
          <mxGeometry x="457" y="500" width="140" height="20" as="geometry" />
        </mxCell>
        <mxCell id="baI93Eb9KqTFqQ3-h29e-8" value="" style="rounded=0;whiteSpace=wrap;html=1;textShadow=0;fillColor=light-dark(#e5eaf1, #272727);strokeColor=none;gradientColor=none;gradientDirection=east;" parent="1" vertex="1">
          <mxGeometry x="211.63" y="380" width="325.37" height="80" as="geometry" />
        </mxCell>
        <mxCell id="baI93Eb9KqTFqQ3-h29e-9" value="" style="rounded=0;whiteSpace=wrap;html=1;textShadow=0;fillColor=light-dark(#e5eaf1, #272727);strokeColor=none;gradientColor=none;gradientDirection=east;fillStyle=solid;" parent="1" vertex="1">
          <mxGeometry x="211.63" y="290" width="325.37" height="80" as="geometry" />
        </mxCell>
        <mxCell id="baI93Eb9KqTFqQ3-h29e-10" value="&lt;strong style=&quot;--tw-border-spacing-x: 0; --tw-border-spacing-y: 0; --tw-translate-x: 0; --tw-translate-y: 0; --tw-rotate: 0; --tw-skew-x: 0; --tw-skew-y: 0; --tw-scale-x: 1; --tw-scale-y: 1; --tw-pan-x: ; --tw-pan-y: ; --tw-pinch-zoom: ; --tw-scroll-snap-strictness: proximity; --tw-gradient-from-position: ; --tw-gradient-via-position: ; --tw-gradient-to-position: ; --tw-ordinal: ; --tw-slashed-zero: ; --tw-numeric-figure: ; --tw-numeric-spacing: ; --tw-numeric-fraction: ; --tw-ring-inset: ; --tw-ring-offset-width: 0px; --tw-ring-offset-color: #fff; --tw-ring-color: rgba(59,130,246,.5); --tw-ring-offset-shadow: 0 0 #0000; --tw-ring-shadow: 0 0 #0000; --tw-shadow: 0 0 #0000; --tw-shadow-colored: 0 0 #0000; --tw-blur: ; --tw-brightness: ; --tw-contrast: ; --tw-grayscale: ; --tw-hue-rotate: ; --tw-invert: ; --tw-saturate: ; --tw-sepia: ; --tw-drop-shadow: ; --tw-backdrop-blur: ; --tw-backdrop-brightness: ; --tw-backdrop-contrast: ; --tw-backdrop-grayscale: ; --tw-backdrop-hue-rotate: ; --tw-backdrop-invert: ; --tw-backdrop-opacity: ; --tw-backdrop-saturate: ; --tw-backdrop-sepia: ; --tw-contain-size: ; --tw-contain-layout: ; --tw-contain-paint: ; --tw-contain-style: ; box-sizing: border-box; border: 0px solid rgb(229, 231, 235); scrollbar-color: auto; scrollbar-width: auto; color: rgb(17, 24, 39); font-style: normal; font-variant-ligatures: normal; font-variant-caps: normal; letter-spacing: normal; orphans: 2; text-align: left; text-indent: 0px; text-transform: none; widows: 2; word-spacing: 0px; -webkit-text-stroke-width: 0px; white-space: normal; text-decoration-thickness: initial; text-decoration-style: initial; text-decoration-color: initial;&quot;&gt;Azure Databricks&lt;/strong&gt;" style="text;whiteSpace=wrap;html=1;labelBackgroundColor=none;fontSize=12;fontStyle=1;fontFamily=Tahoma;verticalAlign=middle;" parent="1" vertex="1">
          <mxGeometry x="407" y="410" width="124" height="20" as="geometry" />
        </mxCell>
        <mxCell id="baI93Eb9KqTFqQ3-h29e-11" value="&lt;strong style=&quot;--tw-border-spacing-x: 0; --tw-border-spacing-y: 0; --tw-translate-x: 0; --tw-translate-y: 0; --tw-rotate: 0; --tw-skew-x: 0; --tw-skew-y: 0; --tw-scale-x: 1; --tw-scale-y: 1; --tw-pan-x: ; --tw-pan-y: ; --tw-pinch-zoom: ; --tw-scroll-snap-strictness: proximity; --tw-gradient-from-position: ; --tw-gradient-via-position: ; --tw-gradient-to-position: ; --tw-ordinal: ; --tw-slashed-zero: ; --tw-numeric-figure: ; --tw-numeric-spacing: ; --tw-numeric-fraction: ; --tw-ring-inset: ; --tw-ring-offset-width: 0px; --tw-ring-offset-color: #fff; --tw-ring-color: rgba(59,130,246,.5); --tw-ring-offset-shadow: 0 0 #0000; --tw-ring-shadow: 0 0 #0000; --tw-shadow: 0 0 #0000; --tw-shadow-colored: 0 0 #0000; --tw-blur: ; --tw-brightness: ; --tw-contrast: ; --tw-grayscale: ; --tw-hue-rotate: ; --tw-invert: ; --tw-saturate: ; --tw-sepia: ; --tw-drop-shadow: ; --tw-backdrop-blur: ; --tw-backdrop-brightness: ; --tw-backdrop-contrast: ; --tw-backdrop-grayscale: ; --tw-backdrop-hue-rotate: ; --tw-backdrop-invert: ; --tw-backdrop-opacity: ; --tw-backdrop-saturate: ; --tw-backdrop-sepia: ; --tw-contain-size: ; --tw-contain-layout: ; --tw-contain-paint: ; --tw-contain-style: ; box-sizing: border-box; border: 0px solid rgb(229, 231, 235); scrollbar-color: auto; scrollbar-width: auto; color: rgb(17, 24, 39); font-style: normal; font-variant-ligatures: normal; font-variant-caps: normal; letter-spacing: normal; orphans: 2; text-align: left; text-indent: 0px; text-transform: none; widows: 2; word-spacing: 0px; -webkit-text-stroke-width: 0px; white-space: normal; text-decoration-thickness: initial; text-decoration-style: initial; text-decoration-color: initial;&quot;&gt;Unity Catalog&lt;/strong&gt;" style="text;whiteSpace=wrap;html=1;labelBackgroundColor=none;fontSize=12;fontStyle=1;fontFamily=Tahoma;verticalAlign=middle;" parent="1" vertex="1">
          <mxGeometry x="407" y="320" width="124" height="20" as="geometry" />
        </mxCell>
        <mxCell id="baI93Eb9KqTFqQ3-h29e-12" value="" style="rounded=0;whiteSpace=wrap;html=1;textShadow=0;fillColor=light-dark(#e5eaf1, #272727);strokeColor=none;gradientColor=none;gradientDirection=east;fillStyle=solid;" parent="1" vertex="1">
          <mxGeometry x="211.63" y="200.00000000000003" width="435.37" height="80" as="geometry" />
        </mxCell>
        <mxCell id="baI93Eb9KqTFqQ3-h29e-13" value="&lt;strong style=&quot;--tw-border-spacing-x: 0; --tw-border-spacing-y: 0; --tw-translate-x: 0; --tw-translate-y: 0; --tw-rotate: 0; --tw-skew-x: 0; --tw-skew-y: 0; --tw-scale-x: 1; --tw-scale-y: 1; --tw-pan-x: ; --tw-pan-y: ; --tw-pinch-zoom: ; --tw-scroll-snap-strictness: proximity; --tw-gradient-from-position: ; --tw-gradient-via-position: ; --tw-gradient-to-position: ; --tw-ordinal: ; --tw-slashed-zero: ; --tw-numeric-figure: ; --tw-numeric-spacing: ; --tw-numeric-fraction: ; --tw-ring-inset: ; --tw-ring-offset-width: 0px; --tw-ring-offset-color: light-dark(#fff, #000000); --tw-ring-color: light-dark(rgba(59,130,246,.5), #4c89ec); --tw-ring-offset-shadow: 0 0 #0000; --tw-ring-shadow: 0 0 #0000; --tw-shadow: 0 0 #0000; --tw-shadow-colored: 0 0 #0000; --tw-blur: ; --tw-brightness: ; --tw-contrast: ; --tw-grayscale: ; --tw-hue-rotate: ; --tw-invert: ; --tw-saturate: ; --tw-sepia: ; --tw-drop-shadow: ; --tw-backdrop-blur: ; --tw-backdrop-brightness: ; --tw-backdrop-contrast: ; --tw-backdrop-grayscale: ; --tw-backdrop-hue-rotate: ; --tw-backdrop-invert: ; --tw-backdrop-opacity: ; --tw-backdrop-saturate: ; --tw-backdrop-sepia: ; --tw-contain-size: ; --tw-contain-layout: ; --tw-contain-paint: ; --tw-contain-style: ; box-sizing: border-box; border: 0px solid rgb(229, 231, 235); scrollbar-color: auto; scrollbar-width: auto; color: rgb(17, 24, 39); font-style: normal; font-variant-ligatures: normal; font-variant-caps: normal; letter-spacing: normal; orphans: 2; text-align: left; text-indent: 0px; text-transform: none; widows: 2; word-spacing: 0px; -webkit-text-stroke-width: 0px; white-space: normal; text-decoration-thickness: initial; text-decoration-style: initial; text-decoration-color: initial;&quot;&gt;Apps&lt;/strong&gt;" style="text;whiteSpace=wrap;html=1;labelBackgroundColor=none;fontSize=12;fontStyle=1;fontFamily=Tahoma;verticalAlign=middle;" parent="1" vertex="1">
          <mxGeometry x="457" y="230.00000000000003" width="140" height="20" as="geometry" />
        </mxCell>
        <mxCell id="baI93Eb9KqTFqQ3-h29e-15" value="" style="shape=image;verticalLabelPosition=bottom;labelBackgroundColor=none;verticalAlign=top;aspect=fixed;imageAspect=0;editableCssRules=.*;image=data:image/svg+xml,PHN2ZyB4bWxucz0iaHR0cDovL3d3dy53My5vcmcvMjAwMC9zdmciIHZpZXdCb3g9IjEuMTU0OTk5OTcxMzg5NzcwNSAwLjUgMTUuNjkwMDAxNDg3NzMxOTM0IDE3IiBoZWlnaHQ9IjE3IiB3aWR0aD0iMTUuNjkwMDAxNDg3NzMxOTM0IiBpZD0iYjFlNzE0NzktMjEzOC00NGUwLWFkZjAtMDJmZTlmZWQ1YzFlIj48cGF0aCBmaWxsPSIjZmYzNjIxIiBkPSJNMS4xNTUsNC45M3YuNTEyTDksOS44NjhsNy4wMDYtMy45NTcsMCwxLjZMOSwxMS40OTEsMS41NSw3LjI1OGwtLjM5NS4yMlYxMC41NEw5LDE0Ljk1NWw3LjAwNi0zLjk0MiwwLDEuNTg2TDksMTYuNTgxLDEuNTUsMTIuMzQ3bC0uMzk1LjIydi41MTlMOSwxNy41bDcuODQ1LTQuNDE0VjEwLjAyMWwtLjQtLjIxOEw5LDE0LjAzNiwxLjk5MiwxMC4wNTRWOC40NzZMOSwxMi40MTQsMTYuODQ1LDhWNC45NzhsLS40LS4yMTlMOSw4Ljk5MywyLjM1Miw1LjIxNSw5LDEuNDZsNS40NzYsMy4wOTQuNDc5LS4yNjlWMy44NjNMOSwuNVoiLz48L3N2Zz4=;" parent="1" vertex="1">
          <mxGeometry x="354.315" y="398.75" width="40" height="42.5" as="geometry" />
        </mxCell>
        <mxCell id="baI93Eb9KqTFqQ3-h29e-16" value="" style="shape=image;verticalLabelPosition=bottom;labelBackgroundColor=default;verticalAlign=top;aspect=fixed;imageAspect=0;editableCssRules=.*;image=data:image/svg+xml,PHN2ZyB4bWxucz0iaHR0cDovL3d3dy53My5vcmcvMjAwMC9zdmciIGZpbGw9Im5vbmUiIHZpZXdCb3g9IjguMzIyNzY1MDA5NDYwNDQ5IDEwLjg1MjYzNTA0MjcyNDYwOSA1NC4zNjY5OTkzNTQyNDgwNDQgNDkuNDcxNTI5Njg4NzIwNyIgaGVpZ2h0PSI0OS40NzE1Mjk2ODg3MjA3IiB3aWR0aD0iNTQuMzY2OTk5MzU0MjQ4MDQ0Ij4mI3hhOzxwYXRoIHN0cm9rZS1saW5lY2FwPSJzcXVhcmUiIHN0cm9rZS1taXRlcmxpbWl0PSIzIiBzdHJva2Utd2lkdGg9IjEuNDAwMTMiIHN0cm9rZT0iI0ZGNUY0NiIgZD0iTTE5LjA5NDUgNTkuNjIzOUMyNC42NTc3IDU5LjYyMzkgMjkuMTY2MSA1NS4xMTU1IDI5LjE2NjEgNDkuNTUyM1YxMS41NTI3SDYxLjk4OTdWNDkuNTUyM0M2MS45ODk3IDU1LjExNTUgNTcuNDgxNSA1OS42MjM5IDUxLjkxODMgNTkuNjIzOSIvPiYjeGE7PHBhdGggc3Ryb2tlLWxpbmVjYXA9InNxdWFyZSIgc3Ryb2tlLW1pdGVybGltaXQ9IjMiIHN0cm9rZS13aWR0aD0iMS40MDAxMyIgc3Ryb2tlPSIjRkY1RjQ2IiBkPSJNNTEuOTE4NCA1OS42MjRIMjkuODE5NiIvPiYjeGE7PHBhdGggc3Ryb2tlLWxpbmVjYXA9InNxdWFyZSIgc3Ryb2tlLW1pdGVybGltaXQ9IjMiIHN0cm9rZS13aWR0aD0iMS40MDAxMyIgc3Ryb2tlPSIjRkY1RjQ2IiBkPSJNMTkuMDk0NSA1OS42MjQxQzEzLjUzMTMgNTkuNjI0MSA5LjAyMjgzIDU1LjExNTcgOS4wMjI4MyA0OS41NTI1VjE4LjkzMTYiLz4mI3hhOzxwYXRoIHN0cm9rZS1saW5lY2FwPSJzcXVhcmUiIHN0cm9rZS1taXRlcmxpbWl0PSIzIiBzdHJva2Utd2lkdGg9IjEuNDAwMTMiIHN0cm9rZT0iI0ZGNUY0NiIgZD0iTTkuMDI3NDcgMTguOTMxNkgyNC40MjQ0Ii8+JiN4YTs8cGF0aCBzdHJva2UtbGluZWNhcD0ic3F1YXJlIiBzdHJva2UtbWl0ZXJsaW1pdD0iMyIgc3Ryb2tlLXdpZHRoPSIxLjQwMDEzIiBzdHJva2U9IiNGRjVGNDYiIGQ9Ik0zNS4wNzQ2IDI0Ljg0NDdINTYuMjY4Ii8+JiN4YTs8cGF0aCBzdHJva2UtbGluZWNhcD0ic3F1YXJlIiBzdHJva2UtbWl0ZXJsaW1pdD0iMyIgc3Ryb2tlLXdpZHRoPSIxLjQwMDEzIiBzdHJva2U9IiNGRjVGNDYiIGQ9Ik0zNS4wNzQ2IDM1Ljk0MjRINTYuMjY4Ii8+JiN4YTs8cGF0aCBzdHJva2UtbGluZWNhcD0ic3F1YXJlIiBzdHJva2UtbWl0ZXJsaW1pdD0iMyIgc3Ryb2tlLXdpZHRoPSIxLjQwMDEzIiBzdHJva2U9IiNGRjVGNDYiIGQ9Ik0zNS4wNzQ2IDQ3LjA0NTlINTYuMjY4Ii8+JiN4YTs8L3N2Zz4=;" parent="1" vertex="1">
          <mxGeometry x="354.315" y="311.85" width="40" height="36.3" as="geometry" />
        </mxCell>
        <mxCell id="baI93Eb9KqTFqQ3-h29e-17" value="&lt;span style=&quot;--tw-border-spacing-x: 0; --tw-border-spacing-y: 0; --tw-translate-x: 0; --tw-translate-y: 0; --tw-rotate: 0; --tw-skew-x: 0; --tw-skew-y: 0; --tw-scale-x: 1; --tw-scale-y: 1; --tw-pan-x: ; --tw-pan-y: ; --tw-pinch-zoom: ; --tw-scroll-snap-strictness: proximity; --tw-gradient-from-position: ; --tw-gradient-via-position: ; --tw-gradient-to-position: ; --tw-ordinal: ; --tw-slashed-zero: ; --tw-numeric-figure: ; --tw-numeric-spacing: ; --tw-numeric-fraction: ; --tw-ring-inset: ; --tw-ring-offset-width: 0px; --tw-ring-offset-color: light-dark(#fff, #000000); --tw-ring-color: light-dark(rgba(59,130,246,.5), #4c89ec); --tw-ring-offset-shadow: 0 0 #0000; --tw-ring-shadow: 0 0 #0000; --tw-shadow: 0 0 #0000; --tw-shadow-colored: 0 0 #0000; --tw-blur: ; --tw-brightness: ; --tw-contrast: ; --tw-grayscale: ; --tw-hue-rotate: ; --tw-invert: ; --tw-saturate: ; --tw-sepia: ; --tw-drop-shadow: ; --tw-backdrop-blur: ; --tw-backdrop-brightness: ; --tw-backdrop-contrast: ; --tw-backdrop-grayscale: ; --tw-backdrop-hue-rotate: ; --tw-backdrop-invert: ; --tw-backdrop-opacity: ; --tw-backdrop-saturate: ; --tw-backdrop-sepia: ; --tw-contain-size: ; --tw-contain-layout: ; --tw-contain-paint: ; --tw-contain-style: ; box-sizing: border-box; border: 0px solid rgb(229, 231, 235); scrollbar-color: auto; scrollbar-width: auto; font-style: normal; font-variant-ligatures: normal; font-variant-caps: normal; letter-spacing: normal; orphans: 2; text-indent: 0px; text-transform: none; widows: 2; word-spacing: 0px; -webkit-text-stroke-width: 0px; white-space: normal; text-decoration-thickness: initial; text-decoration-style: initial; text-decoration-color: initial;&quot;&gt;Data Governance and Security&lt;/span&gt;" style="text;whiteSpace=wrap;html=1;labelBackgroundColor=none;fontSize=12;align=right;verticalAlign=middle;fontColor=#666666;fontFamily=Tahoma;fontStyle=0" parent="1" vertex="1">
          <mxGeometry x="221.63" y="315" width="124" height="30" as="geometry" />
        </mxCell>
        <mxCell id="baI93Eb9KqTFqQ3-h29e-18" value="&lt;span style=&quot;--tw-border-spacing-x: 0; --tw-border-spacing-y: 0; --tw-translate-x: 0; --tw-translate-y: 0; --tw-rotate: 0; --tw-skew-x: 0; --tw-skew-y: 0; --tw-scale-x: 1; --tw-scale-y: 1; --tw-pan-x: ; --tw-pan-y: ; --tw-pinch-zoom: ; --tw-scroll-snap-strictness: proximity; --tw-gradient-from-position: ; --tw-gradient-via-position: ; --tw-gradient-to-position: ; --tw-ordinal: ; --tw-slashed-zero: ; --tw-numeric-figure: ; --tw-numeric-spacing: ; --tw-numeric-fraction: ; --tw-ring-inset: ; --tw-ring-offset-width: 0px; --tw-ring-offset-color: light-dark(#fff, #000000); --tw-ring-color: light-dark(rgba(59,130,246,.5), #4c89ec); --tw-ring-offset-shadow: 0 0 #0000; --tw-ring-shadow: 0 0 #0000; --tw-shadow: 0 0 #0000; --tw-shadow-colored: 0 0 #0000; --tw-blur: ; --tw-brightness: ; --tw-contrast: ; --tw-grayscale: ; --tw-hue-rotate: ; --tw-invert: ; --tw-saturate: ; --tw-sepia: ; --tw-drop-shadow: ; --tw-backdrop-blur: ; --tw-backdrop-brightness: ; --tw-backdrop-contrast: ; --tw-backdrop-grayscale: ; --tw-backdrop-hue-rotate: ; --tw-backdrop-invert: ; --tw-backdrop-opacity: ; --tw-backdrop-saturate: ; --tw-backdrop-sepia: ; --tw-contain-size: ; --tw-contain-layout: ; --tw-contain-paint: ; --tw-contain-style: ; box-sizing: border-box; border: 0px solid rgb(229, 231, 235); scrollbar-color: auto; scrollbar-width: auto; font-style: normal; font-variant-ligatures: normal; font-variant-caps: normal; letter-spacing: normal; orphans: 2; text-indent: 0px; text-transform: none; widows: 2; word-spacing: 0px; -webkit-text-stroke-width: 0px; white-space: normal; text-decoration-thickness: initial; text-decoration-style: initial; text-decoration-color: initial;&quot;&gt;Data Ingestion and Transformation&lt;/span&gt;" style="text;whiteSpace=wrap;html=1;labelBackgroundColor=none;fontSize=12;align=right;verticalAlign=middle;fontColor=#666666;fontFamily=Tahoma;fontStyle=0" parent="1" vertex="1">
          <mxGeometry x="221.63" y="405" width="124" height="30" as="geometry" />
        </mxCell>
        <mxCell id="baI93Eb9KqTFqQ3-h29e-19" value="&lt;span style=&quot;--tw-border-spacing-x: 0; --tw-border-spacing-y: 0; --tw-translate-x: 0; --tw-translate-y: 0; --tw-rotate: 0; --tw-skew-x: 0; --tw-skew-y: 0; --tw-scale-x: 1; --tw-scale-y: 1; --tw-pan-x: ; --tw-pan-y: ; --tw-pinch-zoom: ; --tw-scroll-snap-strictness: proximity; --tw-gradient-from-position: ; --tw-gradient-via-position: ; --tw-gradient-to-position: ; --tw-ordinal: ; --tw-slashed-zero: ; --tw-numeric-figure: ; --tw-numeric-spacing: ; --tw-numeric-fraction: ; --tw-ring-inset: ; --tw-ring-offset-width: 0px; --tw-ring-offset-color: light-dark(#fff, #000000); --tw-ring-color: light-dark(rgba(59,130,246,.5), #4c89ec); --tw-ring-offset-shadow: 0 0 #0000; --tw-ring-shadow: 0 0 #0000; --tw-shadow: 0 0 #0000; --tw-shadow-colored: 0 0 #0000; --tw-blur: ; --tw-brightness: ; --tw-contrast: ; --tw-grayscale: ; --tw-hue-rotate: ; --tw-invert: ; --tw-saturate: ; --tw-sepia: ; --tw-drop-shadow: ; --tw-backdrop-blur: ; --tw-backdrop-brightness: ; --tw-backdrop-contrast: ; --tw-backdrop-grayscale: ; --tw-backdrop-hue-rotate: ; --tw-backdrop-invert: ; --tw-backdrop-opacity: ; --tw-backdrop-saturate: ; --tw-backdrop-sepia: ; --tw-contain-size: ; --tw-contain-layout: ; --tw-contain-paint: ; --tw-contain-style: ; box-sizing: border-box; border: 0px solid rgb(229, 231, 235); scrollbar-color: auto; scrollbar-width: auto; font-style: normal; font-variant-ligatures: normal; font-variant-caps: normal; letter-spacing: normal; orphans: 2; text-indent: 0px; text-transform: none; widows: 2; word-spacing: 0px; -webkit-text-stroke-width: 0px; white-space: normal; text-decoration-thickness: initial; text-decoration-style: initial; text-decoration-color: initial;&quot;&gt;Databases, Flat Files, APIs etc&lt;/span&gt;" style="text;whiteSpace=wrap;html=1;labelBackgroundColor=none;fontSize=12;align=right;verticalAlign=middle;fontColor=#666666;fontFamily=Tahoma;fontStyle=0" parent="1" vertex="1">
          <mxGeometry x="297" y="495" width="103" height="30" as="geometry" />
        </mxCell>
        <mxCell id="baI93Eb9KqTFqQ3-h29e-20" value="&lt;span style=&quot;--tw-border-spacing-x: 0; --tw-border-spacing-y: 0; --tw-translate-x: 0; --tw-translate-y: 0; --tw-rotate: 0; --tw-skew-x: 0; --tw-skew-y: 0; --tw-scale-x: 1; --tw-scale-y: 1; --tw-pan-x: ; --tw-pan-y: ; --tw-pinch-zoom: ; --tw-scroll-snap-strictness: proximity; --tw-gradient-from-position: ; --tw-gradient-via-position: ; --tw-gradient-to-position: ; --tw-ordinal: ; --tw-slashed-zero: ; --tw-numeric-figure: ; --tw-numeric-spacing: ; --tw-numeric-fraction: ; --tw-ring-inset: ; --tw-ring-offset-width: 0px; --tw-ring-offset-color: light-dark(#fff, #000000); --tw-ring-color: light-dark(rgba(59,130,246,.5), #4c89ec); --tw-ring-offset-shadow: 0 0 #0000; --tw-ring-shadow: 0 0 #0000; --tw-shadow: 0 0 #0000; --tw-shadow-colored: 0 0 #0000; --tw-blur: ; --tw-brightness: ; --tw-contrast: ; --tw-grayscale: ; --tw-hue-rotate: ; --tw-invert: ; --tw-saturate: ; --tw-sepia: ; --tw-drop-shadow: ; --tw-backdrop-blur: ; --tw-backdrop-brightness: ; --tw-backdrop-contrast: ; --tw-backdrop-grayscale: ; --tw-backdrop-hue-rotate: ; --tw-backdrop-invert: ; --tw-backdrop-opacity: ; --tw-backdrop-saturate: ; --tw-backdrop-sepia: ; --tw-contain-size: ; --tw-contain-layout: ; --tw-contain-paint: ; --tw-contain-style: ; box-sizing: border-box; border: 0px solid rgb(229, 231, 235); scrollbar-color: auto; scrollbar-width: auto; font-style: normal; font-variant-ligatures: normal; font-variant-caps: normal; letter-spacing: normal; orphans: 2; text-indent: 0px; text-transform: none; widows: 2; word-spacing: 0px; -webkit-text-stroke-width: 0px; white-space: normal; text-decoration-thickness: initial; text-decoration-style: initial; text-decoration-color: initial;&quot;&gt;Data Marketplace&lt;/span&gt;" style="text;whiteSpace=wrap;html=1;labelBackgroundColor=none;fontSize=12;align=right;verticalAlign=middle;fontColor=#666666;fontFamily=Tahoma;fontStyle=0" parent="1" vertex="1">
          <mxGeometry x="267" y="225.00000000000003" width="140" height="30" as="geometry" />
        </mxCell>
        <mxCell id="baI93Eb9KqTFqQ3-h29e-21" value="" style="rounded=0;whiteSpace=wrap;html=1;textShadow=0;fillColor=light-dark(#e5eaf1, #272727);strokeColor=none;gradientColor=none;gradientDirection=east;fillStyle=solid;" parent="1" vertex="1">
          <mxGeometry x="547" y="290" width="100" height="170" as="geometry" />
        </mxCell>
        <mxCell id="baI93Eb9KqTFqQ3-h29e-22" value="&lt;span style=&quot;--tw-border-spacing-x: 0; --tw-border-spacing-y: 0; --tw-translate-x: 0; --tw-translate-y: 0; --tw-rotate: 0; --tw-skew-x: 0; --tw-skew-y: 0; --tw-scale-x: 1; --tw-scale-y: 1; --tw-pan-x: ; --tw-pan-y: ; --tw-pinch-zoom: ; --tw-scroll-snap-strictness: proximity; --tw-gradient-from-position: ; --tw-gradient-via-position: ; --tw-gradient-to-position: ; --tw-ordinal: ; --tw-slashed-zero: ; --tw-numeric-figure: ; --tw-numeric-spacing: ; --tw-numeric-fraction: ; --tw-ring-inset: ; --tw-ring-offset-width: 0px; --tw-ring-offset-color: light-dark(#fff, #000000); --tw-ring-color: light-dark(rgba(59,130,246,.5), #4c89ec); --tw-ring-offset-shadow: 0 0 #0000; --tw-ring-shadow: 0 0 #0000; --tw-shadow: 0 0 #0000; --tw-shadow-colored: 0 0 #0000; --tw-blur: ; --tw-brightness: ; --tw-contrast: ; --tw-grayscale: ; --tw-hue-rotate: ; --tw-invert: ; --tw-saturate: ; --tw-sepia: ; --tw-drop-shadow: ; --tw-backdrop-blur: ; --tw-backdrop-brightness: ; --tw-backdrop-contrast: ; --tw-backdrop-grayscale: ; --tw-backdrop-hue-rotate: ; --tw-backdrop-invert: ; --tw-backdrop-opacity: ; --tw-backdrop-saturate: ; --tw-backdrop-sepia: ; --tw-contain-size: ; --tw-contain-layout: ; --tw-contain-paint: ; --tw-contain-style: ; box-sizing: border-box; border: 0px solid rgb(229, 231, 235); scrollbar-color: auto; scrollbar-width: auto; font-style: normal; font-variant-ligatures: normal; font-variant-caps: normal; letter-spacing: normal; orphans: 2; text-indent: 0px; text-transform: none; widows: 2; word-spacing: 0px; -webkit-text-stroke-width: 0px; white-space: normal; text-decoration-thickness: initial; text-decoration-style: initial; text-decoration-color: initial;&quot;&gt;Data Visualization &amp;amp; Reporting&lt;/span&gt;" style="text;whiteSpace=wrap;html=1;labelBackgroundColor=none;fontSize=12;align=center;verticalAlign=middle;fontColor=#666666;fontFamily=Tahoma;fontStyle=0" parent="1" vertex="1">
          <mxGeometry x="567" y="305" width="60" height="40" as="geometry" />
        </mxCell>
        <mxCell id="baI93Eb9KqTFqQ3-h29e-23" value="&lt;strong style=&quot;--tw-border-spacing-x: 0; --tw-border-spacing-y: 0; --tw-translate-x: 0; --tw-translate-y: 0; --tw-rotate: 0; --tw-skew-x: 0; --tw-skew-y: 0; --tw-scale-x: 1; --tw-scale-y: 1; --tw-pan-x: ; --tw-pan-y: ; --tw-pinch-zoom: ; --tw-scroll-snap-strictness: proximity; --tw-gradient-from-position: ; --tw-gradient-via-position: ; --tw-gradient-to-position: ; --tw-ordinal: ; --tw-slashed-zero: ; --tw-numeric-figure: ; --tw-numeric-spacing: ; --tw-numeric-fraction: ; --tw-ring-inset: ; --tw-ring-offset-width: 0px; --tw-ring-offset-color: light-dark(#fff, #000000); --tw-ring-color: light-dark(rgba(59,130,246,.5), #4c89ec); --tw-ring-offset-shadow: 0 0 #0000; --tw-ring-shadow: 0 0 #0000; --tw-shadow: 0 0 #0000; --tw-shadow-colored: 0 0 #0000; --tw-blur: ; --tw-brightness: ; --tw-contrast: ; --tw-grayscale: ; --tw-hue-rotate: ; --tw-invert: ; --tw-saturate: ; --tw-sepia: ; --tw-drop-shadow: ; --tw-backdrop-blur: ; --tw-backdrop-brightness: ; --tw-backdrop-contrast: ; --tw-backdrop-grayscale: ; --tw-backdrop-hue-rotate: ; --tw-backdrop-invert: ; --tw-backdrop-opacity: ; --tw-backdrop-saturate: ; --tw-backdrop-sepia: ; --tw-contain-size: ; --tw-contain-layout: ; --tw-contain-paint: ; --tw-contain-style: ; box-sizing: border-box; border: 0px solid rgb(229, 231, 235); scrollbar-color: auto; scrollbar-width: auto; color: rgb(17, 24, 39); font-style: normal; font-variant-ligatures: normal; font-variant-caps: normal; letter-spacing: normal; orphans: 2; text-indent: 0px; text-transform: none; widows: 2; word-spacing: 0px; -webkit-text-stroke-width: 0px; white-space: normal; text-decoration-thickness: initial; text-decoration-style: initial; text-decoration-color: initial;&quot;&gt;Power BI&lt;/strong&gt;" style="text;whiteSpace=wrap;html=1;labelBackgroundColor=none;fontSize=12;fontStyle=1;fontFamily=Tahoma;align=center;verticalAlign=middle;" parent="1" vertex="1">
          <mxGeometry x="547" y="420" width="100" height="20" as="geometry" />
        </mxCell>
        <mxCell id="baI93Eb9KqTFqQ3-h29e-24" value="" style="shape=image;verticalLabelPosition=bottom;labelBackgroundColor=none;verticalAlign=top;aspect=fixed;imageAspect=0;editableCssRules=.*;image=data:image/svg+xml,PHN2ZyB4bWxucz0iaHR0cDovL3d3dy53My5vcmcvMjAwMC9zdmciIHZpZXdCb3g9IjIuNjA1OTk5OTQ2NTk0MjM4MyAwLjQ3NDAwMDAzNjcxNjQ2MTIgMTIuNzg4MDAwMTA2ODExNTIzIDE3LjA1MjAwMDA0NTc3NjM2NyIgaGVpZ2h0PSIxNy4wNTIwMDAwNDU3NzYzNjciIHdpZHRoPSIxMi43ODgwMDAxMDY4MTE1MjMiIGlkPSJlMDUxYWFmMC1jMTFjLTRjOWItYjEyMi0wZTM0NWE5NDhmYWEiPjxkZWZzPjxjbGlwUGF0aCBpZD0iYTcwNGNlNDUtNWNhMC00MTBjLTk4MzUtM2Y3ZGQxNjZkZmI2Ij48cGF0aCBmaWxsPSJub25lIiBkPSJNOS43MSwxLjE4NWEuNzExLjcxMSwwLDAsMSwuNzExLS43MTFoNC4yNjNhLjcxLjcxLDAsMCwxLC43MS43MTF2MTUuNjNhLjcxLjcxLDAsMCwxLS43MS43MTFIMy4zMTZhLjcxLjcxLDAsMCwxLS43MS0uNzExVjkuNzFBLjcxLjcxLDAsMCwxLDMuMzE2LDlINi4xNThWNS40NDhhLjcxMS43MTEsMCwwLDEsLjcxMS0uNzExSDkuNzFaIi8+PC9jbGlwUGF0aD48bGluZWFyR3JhZGllbnQgZ3JhZGllbnRVbml0cz0idXNlclNwYWNlT25Vc2UiIGdyYWRpZW50VHJhbnNmb3JtPSJ0cmFuc2xhdGUoLTIwNiAtNDkwLjY5OSkiIHkyPSI1MDcuMTUxIiB4Mj0iMjIyLjA2OCIgeTE9IjQ5MS4yNjMiIHgxPSIyMTQuNTczIiBpZD0iYTdkMGVhMzQtNDMwYy00ODE5LWI5YjEtMGE4YTJkZmRkNTJiIj48c3RvcCBzdG9wLWNvbG9yPSIjZTZhZDEwIiBvZmZzZXQ9IjAiLz48c3RvcCBzdG9wLWNvbG9yPSIjYzg3ZTBlIiBvZmZzZXQ9IjEiLz48L2xpbmVhckdyYWRpZW50PjxsaW5lYXJHcmFkaWVudCBncmFkaWVudFVuaXRzPSJ1c2VyU3BhY2VPblVzZSIgZ3JhZGllbnRUcmFuc2Zvcm09InRyYW5zbGF0ZSgtMjA2IC00OTAuNjk5KSIgeTI9IjUwNy45MDMiIHgyPSIyMTcuOTkzIiB5MT0iNDk1LjY3OCIgeDE9IjIxMS42ODkiIGlkPSJmYTQxZDNiMC0wNjExLTRkMTYtYjEwMy1iNzFlYzg3MGE5Y2IiPjxzdG9wIHN0b3AtY29sb3I9IiNmNmQ3NTEiIG9mZnNldD0iMCIvPjxzdG9wIHN0b3AtY29sb3I9IiNlNmFkMTAiIG9mZnNldD0iMSIvPjwvbGluZWFyR3JhZGllbnQ+PGxpbmVhckdyYWRpZW50IGdyYWRpZW50VW5pdHM9InVzZXJTcGFjZU9uVXNlIiBncmFkaWVudFRyYW5zZm9ybT0idHJhbnNsYXRlKC0yMDYgLTQ5MC42OTkpIiB5Mj0iNTA3LjYyNCIgeDI9IjIxMi44NzMiIHkxPSI0OTkuMzY4IiB4MT0iMjA5LjM5IiBpZD0iZWEwOGQyM2EtNjdjOC00MDlmLTkwZTMtNjdlMGNlODkxMDkxIj48c3RvcCBzdG9wLWNvbG9yPSIjZjllNTg5IiBvZmZzZXQ9IjAiLz48c3RvcCBzdG9wLWNvbG9yPSIjZjZkNzUxIiBvZmZzZXQ9IjEiLz48L2xpbmVhckdyYWRpZW50PjwvZGVmcz48ZyBjbGlwLXBhdGg9InVybCgjYTcwNGNlNDUtNWNhMC00MTBjLTk4MzUtM2Y3ZGQxNjZkZmI2KSI+PGc+PHBhdGggZmlsbD0idXJsKCNhN2QwZWEzNC00MzBjLTQ4MTktYjliMS0wYThhMmRmZGQ1MmIpIiBkPSJNMTUuMzk0LjQ3NFYxNy41MjZIOS43MVYuNDc0WiIvPjxwYXRoIGZpbGw9InVybCgjZmE0MWQzYjAtMDYxMS00ZDE2LWIxMDMtYjcxZWM4NzBhOWNiKSIgZD0iTTExLjg0Miw1LjQ0OFYxNy41MjZINi4xNThWNC43MzdoNC45NzNBLjcxMS43MTEsMCwwLDEsMTEuODQyLDUuNDQ4WiIvPjxwYXRoIGZpbGw9InVybCgjZWEwOGQyM2EtNjdjOC00MDlmLTkwZTMtNjdlMGNlODkxMDkxKSIgZD0iTTIuNjA2LDl2OC41MjZIOC4yOVY5LjcxQS43MTEuNzExLDAsMCwwLDcuNTc5LDlaIi8+PC9nPjwvZz48L3N2Zz4=;" parent="1" vertex="1">
          <mxGeometry x="577" y="353.845" width="40" height="52.31" as="geometry" />
        </mxCell>
        <mxCell id="baI93Eb9KqTFqQ3-h29e-25" value="&lt;span style=&quot;text-wrap-mode: nowrap; background-color: transparent;&quot;&gt;Data Marketplace&lt;/span&gt;" style="text;whiteSpace=wrap;html=1;fillColor=none;labelBackgroundColor=none;fontColor=#FFFFFF;fontStyle=0;fontFamily=Tahoma;fontSize=20;align=center;verticalAlign=middle;" parent="1" vertex="1">
          <mxGeometry x="305" y="140.00000000000003" width="272" height="30" as="geometry" />
        </mxCell>
        <mxCell id="baI93Eb9KqTFqQ3-h29e-26" value="" style="group" parent="1" vertex="1" connectable="0">
          <mxGeometry x="409.315" y="490" width="40" height="40" as="geometry" />
        </mxCell>
        <mxCell id="baI93Eb9KqTFqQ3-h29e-27" value="" style="shape=image;imageAspect=0;aspect=fixed;verticalLabelPosition=bottom;verticalAlign=top;image=https://www.svgrepo.com/show/391606/file-csv.svg;" parent="baI93Eb9KqTFqQ3-h29e-26" vertex="1">
          <mxGeometry width="20" height="20" as="geometry" />
        </mxCell>
        <mxCell id="baI93Eb9KqTFqQ3-h29e-28" value="" style="shape=image;verticalLabelPosition=bottom;labelBackgroundColor=default;verticalAlign=top;aspect=fixed;imageAspect=0;image=https://www.svgrepo.com/show/468484/database-2.svg;" parent="baI93Eb9KqTFqQ3-h29e-26" vertex="1">
          <mxGeometry x="20" y="20" width="20" height="20" as="geometry" />
        </mxCell>
        <mxCell id="baI93Eb9KqTFqQ3-h29e-29" value="" style="shape=image;verticalLabelPosition=bottom;labelBackgroundColor=default;verticalAlign=top;aspect=fixed;imageAspect=0;editableCssRules=.*;image=data:image/svg+xml,PHN2ZyB4bWxucz0iaHR0cDovL3d3dy53My5vcmcvMjAwMC9zdmciIHZpZXdCb3g9IjMuMTE1MjEwNTMzMTQyMDkgNSAyNS44NTM1NTM3NzE5NzI2NTYgMjMiIGZpbGw9IiNmZmYiIHdpZHRoPSIyNS44NTM1NTM3NzE5NzI2NTYiIGhlaWdodD0iMjMiPjx0aXRsZS8+PHBhdGggZD0iTTI4LjkwOCwxMi41NzFhLjk1Mi45NTIsMCwwLDAtLjEtLjE2NiwzLjE0NiwzLjE0NiwwLDAsMC0uMTE4LS40MjNjLS4wMDYtLjAxNi0uMDEyLS4wMzItLjAyLS4wNDhMMjUuOTE3LDUuNkExLDEsMCwwLDAsMjUsNUg3YTEsMSwwLDAsMC0uOTE3LjZsLTIuNzcsNi4zODFhMi44NDEsMi44NDEsMCwwLDAsMCwyLjA4M0E0Ljc1LDQuNzUsMCwwLDAsNiwxNi42MDlWMjdhMSwxLDAsMCwwLDEsMUgyNWExLDEsMCwwLDAsMS0xVjE2LjYwOWE0Ljc0OSw0Ljc0OSwwLDAsMCwyLjY4Ny0yLjU0MywyLjYxNCwyLjYxNCwwLDAsMCwuMTYzLS42NTVBMS4wNTcsMS4wNTcsMCwwLDAsMjguOTA4LDEyLjU3MVpNMTMsMjZWMjBoMnY2Wm00LDBWMjBoMnY2Wm03LDBIMjFWMTlhMSwxLDAsMCwwLTEtMUgxMmExLDEsMCwwLDAtMSwxdjdIOFYxN2E1LjIsNS4yLDAsMCwwLDQtMS44LDUuMzM5LDUuMzM5LDAsMCwwLDgsMEE1LjIsNS4yLDAsMCwwLDI0LDE3Wm0yLjgzNy0xMi43QTMuMDE1LDMuMDE1LDAsMCwxLDI0LDE1YTIuNzg4LDIuNzg4LDAsMCwxLTMtMi41LDEsMSwwLDAsMC0yLDBBMi43ODgsMi43ODgsMCwwLDEsMTYsMTVhMi43ODgsMi43ODgsMCwwLDEtMy0yLjUsMSwxLDAsMCwwLTIsMEEyLjc4OCwyLjc4OCwwLDAsMSw4LDE1YTMuMDE2LDMuMDE2LDAsMCwxLTIuODM4LTEuNy44MzYuODM2LDAsMCwxLDAtLjU3MUw3LjY1Niw3SDI0LjM0NGwyLjQ3Nyw1LjdBLjg1OC44NTgsMCwwLDEsMjYuODM3LDEzLjNaIi8+PC9zdmc+;" parent="1" vertex="1">
          <mxGeometry x="406.34" y="90.00000000000003" width="45.22" height="40" as="geometry" />
        </mxCell>
        <mxCell id="baI93Eb9KqTFqQ3-h29e-30" value="" style="group" parent="1" vertex="1" connectable="0">
          <mxGeometry x="767" y="200.00000000000003" width="100" height="100" as="geometry" />
        </mxCell>
        <mxCell id="baI93Eb9KqTFqQ3-h29e-31" value="" style="ellipse;whiteSpace=wrap;html=1;rounded=0;shadow=0;comic=0;strokeWidth=1;fontFamily=Verdana;fontSize=14;strokeColor=none;fillColor=light-dark(#90a5b1, #52acff);" parent="baI93Eb9KqTFqQ3-h29e-30" vertex="1">
          <mxGeometry width="100" height="100" as="geometry" />
        </mxCell>
        <mxCell id="baI93Eb9KqTFqQ3-h29e-32" value="Data Product&#xa;Owner" style="shape=image;verticalLabelPosition=bottom;labelBackgroundColor=none;verticalAlign=top;aspect=fixed;imageAspect=0;editableCssRules=.*;image=data:image/svg+xml,PHN2ZyB4bWxuczp4bGluaz0iaHR0cDovL3d3dy53My5vcmcvMTk5OS94bGluayIgeG1sbnM9Imh0dHA6Ly93d3cudzMub3JnLzIwMDAvc3ZnIiB4bWw6c3BhY2U9InByZXNlcnZlIiB2aWV3Qm94PSI4Ni4zODEwMTk1OTIyODUxNiAwIDMzOS4yMzcwMzAwMjkyOTY5IDUxMi4wMDAwNjEwMzUxNTYyIiBpZD0iX3gzMl8iIHZlcnNpb249IjEuMSIgd2lkdGg9IjUzMC4wNTc4NTk0MjA3NzY0IiBoZWlnaHQ9IjgwMC4wMDAwOTUzNjc0MzE2Ij4mI3hhOzxzdHlsZSB0eXBlPSJ0ZXh0L2NzcyI+JiN4YTsJLnN0MHtmaWxsOiNmZmY7fSYjeGE7PC9zdHlsZT4mI3hhOzxnPiYjeGE7CTxwYXRoIGQ9Ik0zMzIuOTMzLDIxMy40NTFjLTIwLjcxMywxNy43ODQtNDcuNTU5LDI4LjYyNC03Ni45MzgsMjguNjI0Yy0yOS4zNywwLTU2LjIyNC0xMC44NC03Ni45MjgtMjguNjI0JiMxMDsmIzk7JiM5O2MtNTQuOTkxLDIwLjk1Mi05Mi42ODYsNjYuMTI2LTkyLjY4NiwxMzIuMDk0djk4LjA4MmMwLDAsMTQuNTA1LDE5LjMzMSw0NS44NjQsMzcuNDM3di02OS4zMzloMjguOTkydjgzLjIyOCYjMTA7JiM5OyYjOTtjMjQuODQ4LDkuNzgsNTYuMjQzLDE3LjA0Nyw5NC43NTgsMTcuMDQ3YzM4LjUyNCwwLDY5LjkwMS03LjI2Niw5NC43NjctMTcuMDQ3di04My4yMjhoMjguOTkydjY5LjMzOSYjMTA7JiM5OyYjOTtjMzEuMzU5LTE4LjEwNiw0NS44NjQtMzcuNDM3LDQ1Ljg2NC0zNy40Mzd2LTk4LjA4MkM0MjUuNjE4LDI3OS41NzcsMzg3LjkyMywyMzQuNDAzLDMzMi45MzMsMjEzLjQ1MXoiIGNsYXNzPSJzdDAiLz4mI3hhOwk8cGF0aCBkPSJNMjU1Ljk5NiwyMTMuOTAyYzQ5LjI5OSwwLDg5LjI2LTM5Ljk2LDg5LjI2LTg5LjI1OVY4OS4yNjlDMzQ1LjI1NSwzOS45NiwzMDUuMjk0LDAsMjU1Ljk5NiwwJiMxMDsmIzk7JiM5O2MtNDkuMywwLTg5LjI2OCwzOS45Ni04OS4yNjgsODkuMjY5djM1LjM3NEMxNjYuNzI3LDE3My45NDIsMjA2LjY5NiwyMTMuOTAyLDI1NS45OTYsMjEzLjkwMnoiIGNsYXNzPSJzdDAiLz4mI3hhOzwvZz4mI3hhOzwvc3ZnPg==;fontColor=#FFFFFF;fontStyle=1;fontFamily=Tahoma;" parent="baI93Eb9KqTFqQ3-h29e-30" vertex="1">
          <mxGeometry x="36.75" y="10" width="26.5" height="40" as="geometry" />
        </mxCell>
        <mxCell id="baI93Eb9KqTFqQ3-h29e-33" value="" style="shape=step;perimeter=stepPerimeter;whiteSpace=wrap;html=1;fixedSize=1;rounded=0;shadow=0;comic=0;strokeWidth=1;align=center;verticalAlign=middle;fontFamily=Verdana;fontSize=22;fontColor=#0069D1;fontStyle=1;fillColor=light-dark(#c4ccd6, #121212);strokeColor=none;size=10;" parent="1" vertex="1">
          <mxGeometry x="877" y="236.66000000000003" width="30" height="26.67" as="geometry" />
        </mxCell>
        <mxCell id="baI93Eb9KqTFqQ3-h29e-34" value="" style="shape=step;perimeter=stepPerimeter;whiteSpace=wrap;html=1;fixedSize=1;rounded=0;shadow=0;comic=0;strokeWidth=1;align=center;verticalAlign=middle;fontFamily=Verdana;fontSize=22;fontColor=#0069D1;fontStyle=1;fillColor=light-dark(#c4ccd6, #121212);strokeColor=none;size=10;" parent="1" vertex="1">
          <mxGeometry x="877" y="116.58000000000004" width="30" height="26.67" as="geometry" />
        </mxCell>
        <mxCell id="baI93Eb9KqTFqQ3-h29e-35" value="" style="shape=step;perimeter=stepPerimeter;whiteSpace=wrap;html=1;fixedSize=1;rounded=0;shadow=0;comic=0;strokeWidth=1;align=center;verticalAlign=middle;fontFamily=Verdana;fontSize=22;fontColor=#0069D1;fontStyle=1;fillColor=light-dark(#c4ccd6, #121212);strokeColor=none;size=10;" parent="1" vertex="1">
          <mxGeometry x="877" y="361.65999999999997" width="30" height="26.67" as="geometry" />
        </mxCell>
        <mxCell id="baI93Eb9KqTFqQ3-h29e-36" value="" style="group" parent="1" vertex="1" connectable="0">
          <mxGeometry x="1307" y="325" width="100" height="100" as="geometry" />
        </mxCell>
        <mxCell id="baI93Eb9KqTFqQ3-h29e-37" value="" style="ellipse;whiteSpace=wrap;html=1;rounded=0;shadow=0;comic=0;strokeWidth=1;fontFamily=Verdana;fontSize=14;strokeColor=none;fillColor=light-dark(#90a5b1, #52acff);" parent="baI93Eb9KqTFqQ3-h29e-36" vertex="1">
          <mxGeometry width="100" height="100" as="geometry" />
        </mxCell>
        <mxCell id="baI93Eb9KqTFqQ3-h29e-38" value="Data&#xa;Consumer" style="shape=image;verticalLabelPosition=bottom;labelBackgroundColor=none;verticalAlign=top;aspect=fixed;imageAspect=0;editableCssRules=.*;image=data:image/svg+xml,PHN2ZyB4bWxuczp4bGluaz0iaHR0cDovL3d3dy53My5vcmcvMTk5OS94bGluayIgeG1sbnM9Imh0dHA6Ly93d3cudzMub3JnLzIwMDAvc3ZnIiB4bWw6c3BhY2U9InByZXNlcnZlIiB2ZXJzaW9uPSIxLjEiIHZpZXdCb3g9IjEyLjkgMTYuOSA1MC42NjY1OTg1MTA3NDIxOSAzOC4yIiBoZWlnaHQ9IjQwMi4xMDUyNjMxNTc4OTQ3NCIgd2lkdGg9IjUzMy4zMzI2MTU5MDI1NDk0Ij4mI3hhOwk8cGF0aCBkPSJNIDM4LDE3QyA0MC45NDU1LDE3IDQzLjMzMzMsMTkuMzg3OCA0My4zMzMzLDIyLjMzMzNDIDQzLjMzMzMsMjUuMjc4OCA0MC45NDU1LDI3LjY2NjcgMzgsMjcuNjY2N0MgMzUuMDU0NSwyNy42NjY3IDMyLjY2NjcsMjUuMjc4OCAzMi42NjY3LDIyLjMzMzNDIDMyLjY2NjcsMTkuMzg3OCAzNS4wNTQ1LDE3IDM4LDE3IFogTSAzMi42NjY2LDM0LjM4MzRDIDMxLjk1NTUsMzQuNzM4OSAzMC43ODMzLDM3LjgzMzMgMzEuNDI2MiwzOC4yNTAxTCAyNy45NjQsMzcuNjEzMkMgMzAuMzE5MywzNi43NiAzMC43OTExLDM1LjMzNDQgMzAuOTgyMywzMi43MzM1TCAzMC44MDA5LDMxLjExNjNDIDMxLjU3NDQsMzAuNDcyNSAzMi43MTg1LDI5LjA1MDEgMzMuNzMzMywyOS4wNTAyTCA0Mi4yNjY2LDI5LjA1MDJDIDQzLjMwMzcsMjkuMDUwMSA0NC4yMTQ5LDI5LjQ5MTMgNDQuOTk5OSwzMC4xNTkzTCA0NS40OTk5LDMyLjAwMDFDIDQ1LjQ5OTksMzQuMTczNiA0Ny4xNTU2LDM0LjgyNzEgNDguODg2LDM1Ljg3OThMIDQ2LjQ2NjYsMzUuODI5MkMgNDUuODM3NiwzNS44MDY4IDQ1LjI1NTEsMzUuOTQ4MyA0NC43MTg4LDM2LjIwNTlDIDQ0LjI2NDUsMzUuNDI1MiA0My43MDI5LDM0LjU2ODIgNDMuMzMzMywzNC4zODM0TCA0My40NTM0LDM3LjA4MzVDIDQxLjE5NTYsMzkuMTU2OSA0MC4wNjY2LDQzLjA2NzkgNDAuMDY2Niw0My4wNjc5TCAzOS42NzY0LDQ1LjAwNTNMIDM4LjUzMzMsNDUuMDVDIDM3Ljc2NjEsNDUuMDUgMzcuMDEyOSw0NC45OSAzNi4yNzgyLDQ0Ljg3NDVDIDM1LjY5MzMsNDMuMzIwOCAzNC40MTgzLDQwLjUxNjIgMzIuNDUzMywzOS4yMDc5TCAzMi42NjY2LDM0LjM4MzQgWiBNIDI0LjczMzMsMjYuOTVDIDI3LjY3ODksMjYuOTUgMzAuMDY2NywyOS4zMzc4IDMwLjA2NjcsMzIuMjgzM0MgMzAuMDY2NywzNS4yMjg4IDI3LjY3ODksMzcuNjE2NyAyNC43MzMzLDM3LjYxNjdDIDIxLjc4NzgsMzcuNjE2NyAxOS40LDM1LjIyODggMTkuNCwzMi4yODMzQyAxOS40LDI5LjMzNzggMjEuNzg3OCwyNi45NSAyNC43MzMzLDI2Ljk1IFogTSAxOS40LDQ0LjMzMzNDIDE4LjY4ODksNDQuNjg4OSAxNy4yNjY3LDQ3LjUzMzMgMTcuMjY2Nyw0Ny41MzMzQyAxNy4yNjY3LDQ3LjUzMzMgMTYuNTU1Niw0OC42IDE2LjIsNTIuODY2NkwgMTMsNTEuOEwgMTQuMDY2Nyw0Ni40NjY3QyAxNC4wNjY3LDQ2LjQ2NjcgMTYuMiwzOSAyMC40NjY2LDM5LjAwMDFMIDI4Ljk5OTksMzkuMDAwMUMgMzMuMjY2NywzOSAzNS40LDQ2LjQ2NjcgMzUuNCw0Ni40NjY3TCAzNi40NjY2LDUxLjhMIDMzLjI2NjcsNTIuODY2N0MgMzIuOTExMSw0OC42IDMyLjIwMDEsNDcuNTMzMyAzMi4yMDAxLDQ3LjUzMzNDIDMyLjIwMDEsNDcuNTMzMyAzMC43Nzc4LDQ0LjY4ODkgMzAuMDY2Nyw0NC4zMzMzTCAzMC40OTc2LDU0LjAyMDRDIDI4Ljg3NjIsNTQuNjUyOSAyNy4xMTIsNTUgMjUuMjY2Nyw1NUMgMjMuMDE3Myw1NSAyMC44ODg0LDU0LjQ4NDMgMTguOTkxOCw1My41NjQ2TCAxOS40LDQ0LjMzMzMgWiBNIDUxLjczMzMsMjQuOTMxQyA1NC42Nzg4LDI1LjAzNTkgNTcuMDY2NywyNy41MDg3IDU3LjA2NjcsMzAuNDU0MkMgNTcuMDY2NywzMy4zOTk3IDU0LjY3ODgsMzUuNzAyNSA1MS43MzMzLDM1LjU5NzdDIDQ4Ljc4NzgsMzUuNDkyOCA0Ni40LDMzLjAyIDQ2LjQsMzAuMDc0NUMgNDYuNCwyNy4xMjkgNDguNzg3OCwyNC44MjYyIDUxLjczMzMsMjQuOTMxIFogTSA0Ni40LDQyLjEyNDVDIDQ1LjY4ODksNDIuNDU0NyA0NC4yNjY3LDQ1LjI0ODUgNDQuMjY2Nyw0NS4yNDg1QyA0NC4yNjY3LDQ1LjI0ODUgNDMuNTU1Niw0Ni4yODk4IDQzLjIsNTAuNTQzOEwgNDAsNDkuMzYzMkwgNDEuMDY2Nyw0NC4wNjc5QyA0MS4wNjY3LDQ0LjA2NzkgNDMuMiwzNi42NzcyIDQ3LjQ2NjYsMzYuODI5MkwgNTUuOTk5OSwzNy4xMzNDIDYwLjI2NjcsMzcuMjg0OCA2Mi40LDQ0LjgyNzQgNjIuNCw0NC44Mjc0TCA2My40NjY2LDUwLjE5ODhMIDYwLjI2NjcsNTEuMTUxNUMgNTkuOTExMSw0Ni44NzIyIDU5LjIwMDEsNDUuNzgwMiA1OS4yMDAxLDQ1Ljc4MDJDIDU5LjIwMDEsNDUuNzgwMiA1Ny43Nzc4LDQyLjg4NTEgNTcuMDY2Nyw0Mi41MDQyTCA1Ny40OTc2LDUyLjIwNjdDIDU1Ljg3NjIsNTIuNzgxNCA1NC4xMTIsNTMuMDY1NyA1Mi4yNjY3LDUzQyA1MC4wMTczLDUyLjkxOTkgNDcuODg4NCw1Mi4zMjg0IDQ1Ljk5MTgsNTEuMzQxMkwgNDYuNCw0Mi4xMjQ1IFoiIHN0cm9rZS1saW5lam9pbj0icm91bmQiIHN0cm9rZS13aWR0aD0iMC4yIiBmaWxsLW9wYWNpdHk9IjEiIGZpbGw9IiNmZmYiLz4mI3hhOzwvc3ZnPg==;fontColor=#FFFFFF;fontStyle=1;fontFamily=Tahoma;" parent="baI93Eb9KqTFqQ3-h29e-36" vertex="1">
          <mxGeometry x="30" y="20" width="40" height="30.17" as="geometry" />
        </mxCell>
        <mxCell id="baI93Eb9KqTFqQ3-h29e-39" value="" style="shape=step;perimeter=stepPerimeter;whiteSpace=wrap;html=1;fixedSize=1;rounded=0;shadow=0;comic=0;strokeWidth=1;align=center;verticalAlign=middle;fontFamily=Verdana;fontSize=22;fontColor=#0069D1;fontStyle=1;fillColor=light-dark(#c4ccd6, #121212);strokeColor=none;size=10;" parent="1" vertex="1">
          <mxGeometry x="1267" y="236.66000000000003" width="30" height="26.67" as="geometry" />
        </mxCell>
        <mxCell id="baI93Eb9KqTFqQ3-h29e-40" value="" style="shape=step;perimeter=stepPerimeter;whiteSpace=wrap;html=1;fixedSize=1;rounded=0;shadow=0;comic=0;strokeWidth=1;align=center;verticalAlign=middle;fontFamily=Verdana;fontSize=22;fontColor=#0069D1;fontStyle=1;fillColor=light-dark(#c4ccd6, #121212);strokeColor=none;size=10;" parent="1" vertex="1">
          <mxGeometry x="1267" y="116.58000000000004" width="30" height="26.67" as="geometry" />
        </mxCell>
        <mxCell id="baI93Eb9KqTFqQ3-h29e-41" value="" style="shape=step;perimeter=stepPerimeter;whiteSpace=wrap;html=1;fixedSize=1;rounded=0;shadow=0;comic=0;strokeWidth=1;align=center;verticalAlign=middle;fontFamily=Verdana;fontSize=22;fontColor=#0069D1;fontStyle=1;fillColor=light-dark(#c4ccd6, #121212);strokeColor=none;size=10;" parent="1" vertex="1">
          <mxGeometry x="1267" y="361.65999999999997" width="30" height="26.67" as="geometry" />
        </mxCell>
        <mxCell id="baI93Eb9KqTFqQ3-h29e-42" value="" style="group" parent="1" vertex="1" connectable="0">
          <mxGeometry x="1307" y="200.00000000000003" width="100" height="100" as="geometry" />
        </mxCell>
        <mxCell id="baI93Eb9KqTFqQ3-h29e-43" value="" style="ellipse;whiteSpace=wrap;html=1;rounded=0;shadow=0;comic=0;strokeWidth=1;fontFamily=Verdana;fontSize=14;strokeColor=none;fillColor=light-dark(#90a5b1, #52acff);" parent="baI93Eb9KqTFqQ3-h29e-42" vertex="1">
          <mxGeometry width="100" height="100" as="geometry" />
        </mxCell>
        <mxCell id="baI93Eb9KqTFqQ3-h29e-44" value="Data&#xa;Consumer" style="shape=image;verticalLabelPosition=bottom;labelBackgroundColor=none;verticalAlign=top;aspect=fixed;imageAspect=0;editableCssRules=.*;image=data:image/svg+xml,PHN2ZyB4bWxuczp4bGluaz0iaHR0cDovL3d3dy53My5vcmcvMTk5OS94bGluayIgeG1sbnM9Imh0dHA6Ly93d3cudzMub3JnLzIwMDAvc3ZnIiB4bWw6c3BhY2U9InByZXNlcnZlIiB2ZXJzaW9uPSIxLjEiIHZpZXdCb3g9IjEyLjkgMTYuOSA1MC42NjY1OTg1MTA3NDIxOSAzOC4yIiBoZWlnaHQ9IjQwMi4xMDUyNjMxNTc4OTQ3NCIgd2lkdGg9IjUzMy4zMzI2MTU5MDI1NDk0Ij4mI3hhOwk8cGF0aCBkPSJNIDM4LDE3QyA0MC45NDU1LDE3IDQzLjMzMzMsMTkuMzg3OCA0My4zMzMzLDIyLjMzMzNDIDQzLjMzMzMsMjUuMjc4OCA0MC45NDU1LDI3LjY2NjcgMzgsMjcuNjY2N0MgMzUuMDU0NSwyNy42NjY3IDMyLjY2NjcsMjUuMjc4OCAzMi42NjY3LDIyLjMzMzNDIDMyLjY2NjcsMTkuMzg3OCAzNS4wNTQ1LDE3IDM4LDE3IFogTSAzMi42NjY2LDM0LjM4MzRDIDMxLjk1NTUsMzQuNzM4OSAzMC43ODMzLDM3LjgzMzMgMzEuNDI2MiwzOC4yNTAxTCAyNy45NjQsMzcuNjEzMkMgMzAuMzE5MywzNi43NiAzMC43OTExLDM1LjMzNDQgMzAuOTgyMywzMi43MzM1TCAzMC44MDA5LDMxLjExNjNDIDMxLjU3NDQsMzAuNDcyNSAzMi43MTg1LDI5LjA1MDEgMzMuNzMzMywyOS4wNTAyTCA0Mi4yNjY2LDI5LjA1MDJDIDQzLjMwMzcsMjkuMDUwMSA0NC4yMTQ5LDI5LjQ5MTMgNDQuOTk5OSwzMC4xNTkzTCA0NS40OTk5LDMyLjAwMDFDIDQ1LjQ5OTksMzQuMTczNiA0Ny4xNTU2LDM0LjgyNzEgNDguODg2LDM1Ljg3OThMIDQ2LjQ2NjYsMzUuODI5MkMgNDUuODM3NiwzNS44MDY4IDQ1LjI1NTEsMzUuOTQ4MyA0NC43MTg4LDM2LjIwNTlDIDQ0LjI2NDUsMzUuNDI1MiA0My43MDI5LDM0LjU2ODIgNDMuMzMzMywzNC4zODM0TCA0My40NTM0LDM3LjA4MzVDIDQxLjE5NTYsMzkuMTU2OSA0MC4wNjY2LDQzLjA2NzkgNDAuMDY2Niw0My4wNjc5TCAzOS42NzY0LDQ1LjAwNTNMIDM4LjUzMzMsNDUuMDVDIDM3Ljc2NjEsNDUuMDUgMzcuMDEyOSw0NC45OSAzNi4yNzgyLDQ0Ljg3NDVDIDM1LjY5MzMsNDMuMzIwOCAzNC40MTgzLDQwLjUxNjIgMzIuNDUzMywzOS4yMDc5TCAzMi42NjY2LDM0LjM4MzQgWiBNIDI0LjczMzMsMjYuOTVDIDI3LjY3ODksMjYuOTUgMzAuMDY2NywyOS4zMzc4IDMwLjA2NjcsMzIuMjgzM0MgMzAuMDY2NywzNS4yMjg4IDI3LjY3ODksMzcuNjE2NyAyNC43MzMzLDM3LjYxNjdDIDIxLjc4NzgsMzcuNjE2NyAxOS40LDM1LjIyODggMTkuNCwzMi4yODMzQyAxOS40LDI5LjMzNzggMjEuNzg3OCwyNi45NSAyNC43MzMzLDI2Ljk1IFogTSAxOS40LDQ0LjMzMzNDIDE4LjY4ODksNDQuNjg4OSAxNy4yNjY3LDQ3LjUzMzMgMTcuMjY2Nyw0Ny41MzMzQyAxNy4yNjY3LDQ3LjUzMzMgMTYuNTU1Niw0OC42IDE2LjIsNTIuODY2NkwgMTMsNTEuOEwgMTQuMDY2Nyw0Ni40NjY3QyAxNC4wNjY3LDQ2LjQ2NjcgMTYuMiwzOSAyMC40NjY2LDM5LjAwMDFMIDI4Ljk5OTksMzkuMDAwMUMgMzMuMjY2NywzOSAzNS40LDQ2LjQ2NjcgMzUuNCw0Ni40NjY3TCAzNi40NjY2LDUxLjhMIDMzLjI2NjcsNTIuODY2N0MgMzIuOTExMSw0OC42IDMyLjIwMDEsNDcuNTMzMyAzMi4yMDAxLDQ3LjUzMzNDIDMyLjIwMDEsNDcuNTMzMyAzMC43Nzc4LDQ0LjY4ODkgMzAuMDY2Nyw0NC4zMzMzTCAzMC40OTc2LDU0LjAyMDRDIDI4Ljg3NjIsNTQuNjUyOSAyNy4xMTIsNTUgMjUuMjY2Nyw1NUMgMjMuMDE3Myw1NSAyMC44ODg0LDU0LjQ4NDMgMTguOTkxOCw1My41NjQ2TCAxOS40LDQ0LjMzMzMgWiBNIDUxLjczMzMsMjQuOTMxQyA1NC42Nzg4LDI1LjAzNTkgNTcuMDY2NywyNy41MDg3IDU3LjA2NjcsMzAuNDU0MkMgNTcuMDY2NywzMy4zOTk3IDU0LjY3ODgsMzUuNzAyNSA1MS43MzMzLDM1LjU5NzdDIDQ4Ljc4NzgsMzUuNDkyOCA0Ni40LDMzLjAyIDQ2LjQsMzAuMDc0NUMgNDYuNCwyNy4xMjkgNDguNzg3OCwyNC44MjYyIDUxLjczMzMsMjQuOTMxIFogTSA0Ni40LDQyLjEyNDVDIDQ1LjY4ODksNDIuNDU0NyA0NC4yNjY3LDQ1LjI0ODUgNDQuMjY2Nyw0NS4yNDg1QyA0NC4yNjY3LDQ1LjI0ODUgNDMuNTU1Niw0Ni4yODk4IDQzLjIsNTAuNTQzOEwgNDAsNDkuMzYzMkwgNDEuMDY2Nyw0NC4wNjc5QyA0MS4wNjY3LDQ0LjA2NzkgNDMuMiwzNi42NzcyIDQ3LjQ2NjYsMzYuODI5MkwgNTUuOTk5OSwzNy4xMzNDIDYwLjI2NjcsMzcuMjg0OCA2Mi40LDQ0LjgyNzQgNjIuNCw0NC44Mjc0TCA2My40NjY2LDUwLjE5ODhMIDYwLjI2NjcsNTEuMTUxNUMgNTkuOTExMSw0Ni44NzIyIDU5LjIwMDEsNDUuNzgwMiA1OS4yMDAxLDQ1Ljc4MDJDIDU5LjIwMDEsNDUuNzgwMiA1Ny43Nzc4LDQyLjg4NTEgNTcuMDY2Nyw0Mi41MDQyTCA1Ny40OTc2LDUyLjIwNjdDIDU1Ljg3NjIsNTIuNzgxNCA1NC4xMTIsNTMuMDY1NyA1Mi4yNjY3LDUzQyA1MC4wMTczLDUyLjkxOTkgNDcuODg4NCw1Mi4zMjg0IDQ1Ljk5MTgsNTEuMzQxMkwgNDYuNCw0Mi4xMjQ1IFoiIHN0cm9rZS1saW5lam9pbj0icm91bmQiIHN0cm9rZS13aWR0aD0iMC4yIiBmaWxsLW9wYWNpdHk9IjEiIGZpbGw9IiNmZmYiLz4mI3hhOzwvc3ZnPg==;fontColor=#FFFFFF;fontStyle=1;fontFamily=Tahoma;" parent="baI93Eb9KqTFqQ3-h29e-42" vertex="1">
          <mxGeometry x="30" y="20" width="40" height="30.17" as="geometry" />
        </mxCell>
        <mxCell id="baI93Eb9KqTFqQ3-h29e-45" value="" style="group" parent="1" vertex="1" connectable="0">
          <mxGeometry x="1307" y="80.00000000000003" width="100" height="100" as="geometry" />
        </mxCell>
        <mxCell id="baI93Eb9KqTFqQ3-h29e-46" value="" style="ellipse;whiteSpace=wrap;html=1;rounded=0;shadow=0;comic=0;strokeWidth=1;fontFamily=Verdana;fontSize=14;strokeColor=none;fillColor=light-dark(#90a5b1, #52acff);" parent="baI93Eb9KqTFqQ3-h29e-45" vertex="1">
          <mxGeometry width="100" height="100" as="geometry" />
        </mxCell>
        <mxCell id="baI93Eb9KqTFqQ3-h29e-47" value="Data&#xa;Consumer" style="shape=image;verticalLabelPosition=bottom;labelBackgroundColor=none;verticalAlign=top;aspect=fixed;imageAspect=0;editableCssRules=.*;image=data:image/svg+xml,PHN2ZyB4bWxuczp4bGluaz0iaHR0cDovL3d3dy53My5vcmcvMTk5OS94bGluayIgeG1sbnM9Imh0dHA6Ly93d3cudzMub3JnLzIwMDAvc3ZnIiB4bWw6c3BhY2U9InByZXNlcnZlIiB2ZXJzaW9uPSIxLjEiIHZpZXdCb3g9IjEyLjkgMTYuOSA1MC42NjY1OTg1MTA3NDIxOSAzOC4yIiBoZWlnaHQ9IjQwMi4xMDUyNjMxNTc4OTQ3NCIgd2lkdGg9IjUzMy4zMzI2MTU5MDI1NDk0Ij4mI3hhOwk8cGF0aCBkPSJNIDM4LDE3QyA0MC45NDU1LDE3IDQzLjMzMzMsMTkuMzg3OCA0My4zMzMzLDIyLjMzMzNDIDQzLjMzMzMsMjUuMjc4OCA0MC45NDU1LDI3LjY2NjcgMzgsMjcuNjY2N0MgMzUuMDU0NSwyNy42NjY3IDMyLjY2NjcsMjUuMjc4OCAzMi42NjY3LDIyLjMzMzNDIDMyLjY2NjcsMTkuMzg3OCAzNS4wNTQ1LDE3IDM4LDE3IFogTSAzMi42NjY2LDM0LjM4MzRDIDMxLjk1NTUsMzQuNzM4OSAzMC43ODMzLDM3LjgzMzMgMzEuNDI2MiwzOC4yNTAxTCAyNy45NjQsMzcuNjEzMkMgMzAuMzE5MywzNi43NiAzMC43OTExLDM1LjMzNDQgMzAuOTgyMywzMi43MzM1TCAzMC44MDA5LDMxLjExNjNDIDMxLjU3NDQsMzAuNDcyNSAzMi43MTg1LDI5LjA1MDEgMzMuNzMzMywyOS4wNTAyTCA0Mi4yNjY2LDI5LjA1MDJDIDQzLjMwMzcsMjkuMDUwMSA0NC4yMTQ5LDI5LjQ5MTMgNDQuOTk5OSwzMC4xNTkzTCA0NS40OTk5LDMyLjAwMDFDIDQ1LjQ5OTksMzQuMTczNiA0Ny4xNTU2LDM0LjgyNzEgNDguODg2LDM1Ljg3OThMIDQ2LjQ2NjYsMzUuODI5MkMgNDUuODM3NiwzNS44MDY4IDQ1LjI1NTEsMzUuOTQ4MyA0NC43MTg4LDM2LjIwNTlDIDQ0LjI2NDUsMzUuNDI1MiA0My43MDI5LDM0LjU2ODIgNDMuMzMzMywzNC4zODM0TCA0My40NTM0LDM3LjA4MzVDIDQxLjE5NTYsMzkuMTU2OSA0MC4wNjY2LDQzLjA2NzkgNDAuMDY2Niw0My4wNjc5TCAzOS42NzY0LDQ1LjAwNTNMIDM4LjUzMzMsNDUuMDVDIDM3Ljc2NjEsNDUuMDUgMzcuMDEyOSw0NC45OSAzNi4yNzgyLDQ0Ljg3NDVDIDM1LjY5MzMsNDMuMzIwOCAzNC40MTgzLDQwLjUxNjIgMzIuNDUzMywzOS4yMDc5TCAzMi42NjY2LDM0LjM4MzQgWiBNIDI0LjczMzMsMjYuOTVDIDI3LjY3ODksMjYuOTUgMzAuMDY2NywyOS4zMzc4IDMwLjA2NjcsMzIuMjgzM0MgMzAuMDY2NywzNS4yMjg4IDI3LjY3ODksMzcuNjE2NyAyNC43MzMzLDM3LjYxNjdDIDIxLjc4NzgsMzcuNjE2NyAxOS40LDM1LjIyODggMTkuNCwzMi4yODMzQyAxOS40LDI5LjMzNzggMjEuNzg3OCwyNi45NSAyNC43MzMzLDI2Ljk1IFogTSAxOS40LDQ0LjMzMzNDIDE4LjY4ODksNDQuNjg4OSAxNy4yNjY3LDQ3LjUzMzMgMTcuMjY2Nyw0Ny41MzMzQyAxNy4yNjY3LDQ3LjUzMzMgMTYuNTU1Niw0OC42IDE2LjIsNTIuODY2NkwgMTMsNTEuOEwgMTQuMDY2Nyw0Ni40NjY3QyAxNC4wNjY3LDQ2LjQ2NjcgMTYuMiwzOSAyMC40NjY2LDM5LjAwMDFMIDI4Ljk5OTksMzkuMDAwMUMgMzMuMjY2NywzOSAzNS40LDQ2LjQ2NjcgMzUuNCw0Ni40NjY3TCAzNi40NjY2LDUxLjhMIDMzLjI2NjcsNTIuODY2N0MgMzIuOTExMSw0OC42IDMyLjIwMDEsNDcuNTMzMyAzMi4yMDAxLDQ3LjUzMzNDIDMyLjIwMDEsNDcuNTMzMyAzMC43Nzc4LDQ0LjY4ODkgMzAuMDY2Nyw0NC4zMzMzTCAzMC40OTc2LDU0LjAyMDRDIDI4Ljg3NjIsNTQuNjUyOSAyNy4xMTIsNTUgMjUuMjY2Nyw1NUMgMjMuMDE3Myw1NSAyMC44ODg0LDU0LjQ4NDMgMTguOTkxOCw1My41NjQ2TCAxOS40LDQ0LjMzMzMgWiBNIDUxLjczMzMsMjQuOTMxQyA1NC42Nzg4LDI1LjAzNTkgNTcuMDY2NywyNy41MDg3IDU3LjA2NjcsMzAuNDU0MkMgNTcuMDY2NywzMy4zOTk3IDU0LjY3ODgsMzUuNzAyNSA1MS43MzMzLDM1LjU5NzdDIDQ4Ljc4NzgsMzUuNDkyOCA0Ni40LDMzLjAyIDQ2LjQsMzAuMDc0NUMgNDYuNCwyNy4xMjkgNDguNzg3OCwyNC44MjYyIDUxLjczMzMsMjQuOTMxIFogTSA0Ni40LDQyLjEyNDVDIDQ1LjY4ODksNDIuNDU0NyA0NC4yNjY3LDQ1LjI0ODUgNDQuMjY2Nyw0NS4yNDg1QyA0NC4yNjY3LDQ1LjI0ODUgNDMuNTU1Niw0Ni4yODk4IDQzLjIsNTAuNTQzOEwgNDAsNDkuMzYzMkwgNDEuMDY2Nyw0NC4wNjc5QyA0MS4wNjY3LDQ0LjA2NzkgNDMuMiwzNi42NzcyIDQ3LjQ2NjYsMzYuODI5MkwgNTUuOTk5OSwzNy4xMzNDIDYwLjI2NjcsMzcuMjg0OCA2Mi40LDQ0LjgyNzQgNjIuNCw0NC44Mjc0TCA2My40NjY2LDUwLjE5ODhMIDYwLjI2NjcsNTEuMTUxNUMgNTkuOTExMSw0Ni44NzIyIDU5LjIwMDEsNDUuNzgwMiA1OS4yMDAxLDQ1Ljc4MDJDIDU5LjIwMDEsNDUuNzgwMiA1Ny43Nzc4LDQyLjg4NTEgNTcuMDY2Nyw0Mi41MDQyTCA1Ny40OTc2LDUyLjIwNjdDIDU1Ljg3NjIsNTIuNzgxNCA1NC4xMTIsNTMuMDY1NyA1Mi4yNjY3LDUzQyA1MC4wMTczLDUyLjkxOTkgNDcuODg4NCw1Mi4zMjg0IDQ1Ljk5MTgsNTEuMzQxMkwgNDYuNCw0Mi4xMjQ1IFoiIHN0cm9rZS1saW5lam9pbj0icm91bmQiIHN0cm9rZS13aWR0aD0iMC4yIiBmaWxsLW9wYWNpdHk9IjEiIGZpbGw9IiNmZmYiLz4mI3hhOzwvc3ZnPg==;fontColor=#FFFFFF;fontStyle=1;fontFamily=Tahoma;" parent="baI93Eb9KqTFqQ3-h29e-45" vertex="1">
          <mxGeometry x="30" y="20" width="40" height="30.17" as="geometry" />
        </mxCell>
        <mxCell id="baI93Eb9KqTFqQ3-h29e-48" value="" style="group" parent="1" vertex="1" connectable="0">
          <mxGeometry x="571" y="210.00000000000003" width="60" height="60" as="geometry" />
        </mxCell>
        <mxCell id="baI93Eb9KqTFqQ3-h29e-49" value="" style="ellipse;whiteSpace=wrap;html=1;rounded=0;shadow=0;comic=0;strokeWidth=1;fontFamily=Verdana;fontSize=14;strokeColor=none;fillColor=light-dark(#90a5b1, #52acff);" parent="baI93Eb9KqTFqQ3-h29e-48" vertex="1">
          <mxGeometry width="60" height="60" as="geometry" />
        </mxCell>
        <mxCell id="baI93Eb9KqTFqQ3-h29e-50" value="" style="ellipse;whiteSpace=wrap;html=1;rounded=0;shadow=0;comic=0;strokeWidth=1;fontFamily=Verdana;fontSize=22;strokeColor=none;fillColor=light-dark(#c4ccd6, #121212);fontColor=#0069D1;fontStyle=1" parent="baI93Eb9KqTFqQ3-h29e-48" vertex="1">
          <mxGeometry x="15.882352941176471" y="15.882352941176471" width="28.23529411764706" height="28.235294117647054" as="geometry" />
        </mxCell>
        <mxCell id="baI93Eb9KqTFqQ3-h29e-51" style="rounded=0;orthogonalLoop=1;jettySize=auto;html=1;exitX=0.5;exitY=0;exitDx=0;exitDy=0;entryX=0;entryY=0;entryDx=0;entryDy=0;endArrow=none;startFill=0;strokeColor=light-dark(#90a5b1, #ededed);dashed=1;dashPattern=8 8;" parent="1" source="baI93Eb9KqTFqQ3-h29e-49" target="baI93Eb9KqTFqQ3-h29e-59" edge="1">
          <mxGeometry relative="1" as="geometry">
            <mxPoint x="1027" y="20.00000000000003" as="targetPoint" />
          </mxGeometry>
        </mxCell>
        <mxCell id="baI93Eb9KqTFqQ3-h29e-52" style="rounded=0;orthogonalLoop=1;jettySize=auto;html=1;exitX=0.5;exitY=1;exitDx=0;exitDy=0;entryX=0;entryY=1;entryDx=0;entryDy=0;endArrow=none;startFill=0;strokeColor=light-dark(#90a5b1, #ededed);dashed=1;dashPattern=8 8;" parent="1" source="baI93Eb9KqTFqQ3-h29e-49" target="baI93Eb9KqTFqQ3-h29e-59" edge="1">
          <mxGeometry relative="1" as="geometry">
            <mxPoint x="611" y="220.00000000000003" as="sourcePoint" />
            <mxPoint x="977" y="140.00000000000003" as="targetPoint" />
          </mxGeometry>
        </mxCell>
        <mxCell id="baI93Eb9KqTFqQ3-h29e-53" value="" style="group" parent="1" vertex="1" connectable="0">
          <mxGeometry x="767" y="80.00000000000003" width="100" height="100" as="geometry" />
        </mxCell>
        <mxCell id="baI93Eb9KqTFqQ3-h29e-54" value="" style="ellipse;whiteSpace=wrap;html=1;rounded=0;shadow=0;comic=0;strokeWidth=1;fontFamily=Verdana;fontSize=14;strokeColor=none;fillColor=light-dark(#90a5b1, #52acff);" parent="baI93Eb9KqTFqQ3-h29e-53" vertex="1">
          <mxGeometry width="100" height="100" as="geometry" />
        </mxCell>
        <mxCell id="baI93Eb9KqTFqQ3-h29e-55" value="Data Product&#xa;Owner" style="shape=image;verticalLabelPosition=bottom;labelBackgroundColor=none;verticalAlign=top;aspect=fixed;imageAspect=0;editableCssRules=.*;image=data:image/svg+xml,PHN2ZyB4bWxuczp4bGluaz0iaHR0cDovL3d3dy53My5vcmcvMTk5OS94bGluayIgeG1sbnM9Imh0dHA6Ly93d3cudzMub3JnLzIwMDAvc3ZnIiB4bWw6c3BhY2U9InByZXNlcnZlIiB2aWV3Qm94PSI4Ni4zODEwMTk1OTIyODUxNiAwIDMzOS4yMzcwMzAwMjkyOTY5IDUxMi4wMDAwNjEwMzUxNTYyIiBpZD0iX3gzMl8iIHZlcnNpb249IjEuMSIgd2lkdGg9IjUzMC4wNTc4NTk0MjA3NzY0IiBoZWlnaHQ9IjgwMC4wMDAwOTUzNjc0MzE2Ij4mI3hhOzxzdHlsZSB0eXBlPSJ0ZXh0L2NzcyI+JiN4YTsJLnN0MHtmaWxsOiNmZmY7fSYjeGE7PC9zdHlsZT4mI3hhOzxnPiYjeGE7CTxwYXRoIGQ9Ik0zMzIuOTMzLDIxMy40NTFjLTIwLjcxMywxNy43ODQtNDcuNTU5LDI4LjYyNC03Ni45MzgsMjguNjI0Yy0yOS4zNywwLTU2LjIyNC0xMC44NC03Ni45MjgtMjguNjI0JiMxMDsmIzk7JiM5O2MtNTQuOTkxLDIwLjk1Mi05Mi42ODYsNjYuMTI2LTkyLjY4NiwxMzIuMDk0djk4LjA4MmMwLDAsMTQuNTA1LDE5LjMzMSw0NS44NjQsMzcuNDM3di02OS4zMzloMjguOTkydjgzLjIyOCYjMTA7JiM5OyYjOTtjMjQuODQ4LDkuNzgsNTYuMjQzLDE3LjA0Nyw5NC43NTgsMTcuMDQ3YzM4LjUyNCwwLDY5LjkwMS03LjI2Niw5NC43NjctMTcuMDQ3di04My4yMjhoMjguOTkydjY5LjMzOSYjMTA7JiM5OyYjOTtjMzEuMzU5LTE4LjEwNiw0NS44NjQtMzcuNDM3LDQ1Ljg2NC0zNy40Mzd2LTk4LjA4MkM0MjUuNjE4LDI3OS41NzcsMzg3LjkyMywyMzQuNDAzLDMzMi45MzMsMjEzLjQ1MXoiIGNsYXNzPSJzdDAiLz4mI3hhOwk8cGF0aCBkPSJNMjU1Ljk5NiwyMTMuOTAyYzQ5LjI5OSwwLDg5LjI2LTM5Ljk2LDg5LjI2LTg5LjI1OVY4OS4yNjlDMzQ1LjI1NSwzOS45NiwzMDUuMjk0LDAsMjU1Ljk5NiwwJiMxMDsmIzk7JiM5O2MtNDkuMywwLTg5LjI2OCwzOS45Ni04OS4yNjgsODkuMjY5djM1LjM3NEMxNjYuNzI3LDE3My45NDIsMjA2LjY5NiwyMTMuOTAyLDI1NS45OTYsMjEzLjkwMnoiIGNsYXNzPSJzdDAiLz4mI3hhOzwvZz4mI3hhOzwvc3ZnPg==;fontColor=#FFFFFF;fontStyle=1;fontFamily=Tahoma;" parent="baI93Eb9KqTFqQ3-h29e-53" vertex="1">
          <mxGeometry x="36.75" y="10" width="26.5" height="40" as="geometry" />
        </mxCell>
        <mxCell id="baI93Eb9KqTFqQ3-h29e-56" value="" style="group" parent="1" vertex="1" connectable="0">
          <mxGeometry x="767" y="320" width="100" height="100" as="geometry" />
        </mxCell>
        <mxCell id="baI93Eb9KqTFqQ3-h29e-57" value="" style="ellipse;whiteSpace=wrap;html=1;rounded=0;shadow=0;comic=0;strokeWidth=1;fontFamily=Verdana;fontSize=14;strokeColor=none;fillColor=light-dark(#90a5b1, #52acff);" parent="baI93Eb9KqTFqQ3-h29e-56" vertex="1">
          <mxGeometry width="100" height="100" as="geometry" />
        </mxCell>
        <mxCell id="baI93Eb9KqTFqQ3-h29e-58" value="Data Product&#xa;Owner" style="shape=image;verticalLabelPosition=bottom;labelBackgroundColor=none;verticalAlign=top;aspect=fixed;imageAspect=0;editableCssRules=.*;image=data:image/svg+xml,PHN2ZyB4bWxuczp4bGluaz0iaHR0cDovL3d3dy53My5vcmcvMTk5OS94bGluayIgeG1sbnM9Imh0dHA6Ly93d3cudzMub3JnLzIwMDAvc3ZnIiB4bWw6c3BhY2U9InByZXNlcnZlIiB2aWV3Qm94PSI4Ni4zODEwMTk1OTIyODUxNiAwIDMzOS4yMzcwMzAwMjkyOTY5IDUxMi4wMDAwNjEwMzUxNTYyIiBpZD0iX3gzMl8iIHZlcnNpb249IjEuMSIgd2lkdGg9IjUzMC4wNTc4NTk0MjA3NzY0IiBoZWlnaHQ9IjgwMC4wMDAwOTUzNjc0MzE2Ij4mI3hhOzxzdHlsZSB0eXBlPSJ0ZXh0L2NzcyI+JiN4YTsJLnN0MHtmaWxsOiNmZmY7fSYjeGE7PC9zdHlsZT4mI3hhOzxnPiYjeGE7CTxwYXRoIGQ9Ik0zMzIuOTMzLDIxMy40NTFjLTIwLjcxMywxNy43ODQtNDcuNTU5LDI4LjYyNC03Ni45MzgsMjguNjI0Yy0yOS4zNywwLTU2LjIyNC0xMC44NC03Ni45MjgtMjguNjI0JiMxMDsmIzk7JiM5O2MtNTQuOTkxLDIwLjk1Mi05Mi42ODYsNjYuMTI2LTkyLjY4NiwxMzIuMDk0djk4LjA4MmMwLDAsMTQuNTA1LDE5LjMzMSw0NS44NjQsMzcuNDM3di02OS4zMzloMjguOTkydjgzLjIyOCYjMTA7JiM5OyYjOTtjMjQuODQ4LDkuNzgsNTYuMjQzLDE3LjA0Nyw5NC43NTgsMTcuMDQ3YzM4LjUyNCwwLDY5LjkwMS03LjI2Niw5NC43NjctMTcuMDQ3di04My4yMjhoMjguOTkydjY5LjMzOSYjMTA7JiM5OyYjOTtjMzEuMzU5LTE4LjEwNiw0NS44NjQtMzcuNDM3LDQ1Ljg2NC0zNy40Mzd2LTk4LjA4MkM0MjUuNjE4LDI3OS41NzcsMzg3LjkyMywyMzQuNDAzLDMzMi45MzMsMjEzLjQ1MXoiIGNsYXNzPSJzdDAiLz4mI3hhOwk8cGF0aCBkPSJNMjU1Ljk5NiwyMTMuOTAyYzQ5LjI5OSwwLDg5LjI2LTM5Ljk2LDg5LjI2LTg5LjI1OVY4OS4yNjlDMzQ1LjI1NSwzOS45NiwzMDUuMjk0LDAsMjU1Ljk5NiwwJiMxMDsmIzk7JiM5O2MtNDkuMywwLTg5LjI2OCwzOS45Ni04OS4yNjgsODkuMjY5djM1LjM3NEMxNjYuNzI3LDE3My45NDIsMjA2LjY5NiwyMTMuOTAyLDI1NS45OTYsMjEzLjkwMnoiIGNsYXNzPSJzdDAiLz4mI3hhOzwvZz4mI3hhOzwvc3ZnPg==;fontColor=#FFFFFF;fontStyle=1;fontFamily=Tahoma;" parent="baI93Eb9KqTFqQ3-h29e-56" vertex="1">
          <mxGeometry x="36.75" y="10" width="26.5" height="40" as="geometry" />
        </mxCell>
        <mxCell id="baI93Eb9KqTFqQ3-h29e-59" value="" style="ellipse;whiteSpace=wrap;html=1;rounded=0;shadow=0;comic=0;strokeWidth=1;fontFamily=Verdana;fontSize=14;strokeColor=none;fillColor=light-dark(#90a5b1, #52acff);" parent="1" vertex="1">
          <mxGeometry x="917" y="80.00000000000003" width="340" height="340" as="geometry" />
        </mxCell>
        <mxCell id="baI93Eb9KqTFqQ3-h29e-60" value="" style="ellipse;whiteSpace=wrap;html=1;rounded=0;shadow=0;comic=0;strokeWidth=1;fontFamily=Verdana;fontSize=22;strokeColor=none;fillColor=light-dark(#c4ccd6, #121212);fontColor=#0069D1;fontStyle=1" parent="1" vertex="1">
          <mxGeometry x="1007" y="170.00000000000003" width="160" height="160" as="geometry" />
        </mxCell>
        <mxCell id="baI93Eb9KqTFqQ3-h29e-61" value="Data Tables" style="shape=image;verticalLabelPosition=bottom;labelBackgroundColor=none;verticalAlign=top;aspect=fixed;imageAspect=0;editableCssRules=.*;image=data:image/svg+xml,PHN2ZyB4bWxucz0iaHR0cDovL3d3dy53My5vcmcvMjAwMC9zdmciIHZlcnNpb249IjEuMSIgdmlld0JveD0iMCA2LjY1Njk5OTU4ODAxMjY5NSAyMi40MDYwMDAxMzczMjkxIDE4LjY4NzAwMDI3NDY1ODIwMyIgaGVpZ2h0PSI0NjcuMTc1MDA2ODY2NDU1MSIgd2lkdGg9IjU2MC4xNTAwMDM0MzMyMjc1IiBmaWxsPSIjZmZmIj4mI3hhOzx0aXRsZT50YWJsZTwvdGl0bGU+JiN4YTs8cGF0aCBkPSJNMCA4LjA2M3YxNS44NzVjMCAwLjc4MSAwLjYyNSAxLjQwNiAxLjQwNiAxLjQwNmgxOS42MjVjMC43ODEgMCAxLjM3NS0wLjYyNSAxLjM3NS0xLjQwNnYtMTUuODc1YzAtMC43ODEtMC41OTQtMS40MDYtMS4zNzUtMS40MDZoLTE5LjYyNWMtMC43ODEgMC0xLjQwNiAwLjYyNS0xLjQwNiAxLjQwNnpNMS44NzUgMTMuNDY5di00LjAzMWg1LjU5NHY0LjAzMWgtNS41OTR6TTguNDA2IDEzLjQ2OXYtNC4wMzFoNS42MjV2NC4wMzFoLTUuNjI1ek0xNC45MzggMTMuNDY5di00LjAzMWg1LjU5NHY0LjAzMWgtNS41OTR6TTEuODc1IDE4LjQ2OXYtNC4wMzFoNS41OTR2NC4wMzFoLTUuNTk0ek04LjQwNiAxOC40Njl2LTQuMDMxaDUuNjI1djQuMDMxaC01LjYyNXpNMTQuOTM4IDE4LjQ2OXYtNC4wMzFoNS41OTR2NC4wMzFoLTUuNTk0ek0xLjg3NSAyMy40Mzh2LTQuMDYzaDUuNTk0djQuMDYzaC01LjU5NHpNOC40MDYgMjMuNDM4di00LjA2M2g1LjYyNXY0LjA2M2gtNS42MjV6TTE0LjkzOCAyMy40Mzh2LTQuMDYzaDUuNTk0djQuMDYzaC01LjU5NHoiLz4mI3hhOzwvc3ZnPg==;fontColor=#FFFFFF;fontSize=12;fontStyle=1;fontFamily=Tahoma;" parent="1" vertex="1">
          <mxGeometry x="1177" y="256.65000000000003" width="40" height="33.35" as="geometry" />
        </mxCell>
        <mxCell id="baI93Eb9KqTFqQ3-h29e-62" value="API&#39;s" style="shape=image;verticalLabelPosition=bottom;labelBackgroundColor=none;verticalAlign=top;aspect=fixed;imageAspect=0;editableCssRules=.*;image=data:image/svg+xml,PHN2ZyB4bWxucz0iaHR0cDovL3d3dy53My5vcmcvMjAwMC9zdmciIGZpbGw9Im5vbmUiIHZpZXdCb3g9IjAuNDk5OTk5NTgyNzY3NDg2NiAwLjQ5OTYzOTU3MDcxMzA0MzIgMTUuMDAwMTE0NDQwOTE3OTY5IDE1LjAwMDQ3NjgzNzE1ODIwMyIgaGVpZ2h0PSI3NTAuMDIzODQxODU3OTEwMiIgd2lkdGg9Ijc1MC4wMDU3MjIwNDU4OTg0Ij48cGF0aCBjbGlwLXJ1bGU9ImV2ZW5vZGQiIGQ9Ik0uNSAyLjc1YTIuMjUgMi4yNSAwIDExNC4yOC45N2wxLjM0NSAxLjM0NC4yODQtLjI4NGEyLjI1IDIuMjUgMCAwMTMuMTgyIDBsLjI4NC4yODQgMS4zNDQtMS4zNDRhMi4yNSAyLjI1IDAgMTExLjA2IDEuMDZsLTEuMzQzIDEuMzQ1LjI4NC4yODRhMi4yNSAyLjI1IDAgMDEwIDMuMTgybC0uMjg0LjI4NCAxLjM0NCAxLjM0NGEyLjI1IDIuMjUgMCAxMS0xLjA2IDEuMDZsLTEuMzQ1LTEuMzQzLS4yODQuMjg0YTIuMjUgMi4yNSAwIDAxLTMuMTgyIDBsLS4yODQtLjI4NC0xLjM0NCAxLjM0NGEyLjI1IDIuMjUgMCAxMS0xLjA2LTEuMDZsMS4zNDMtMS4zNDUtLjI4NC0uMjg0YTIuMjUgMi4yNSAwIDAxMC0zLjE4MmwuMjg0LS4yODRMMy43MiA0Ljc4MUEyLjI1IDIuMjUgMCAwMS41IDIuNzV6TTIuNzUgMmEuNzUuNzUgMCAxMDAgMS41Ljc1Ljc1IDAgMDAwLTEuNXptMCAxMC41YS43NS43NSAwIDEwMCAxLjUuNzUuNzUgMCAwMDAtMS41em05Ljc1Ljc1YS43NS43NSAwIDExMS41IDAgLjc1Ljc1IDAgMDEtMS41IDB6TTEzLjI1IDJhLjc1Ljc1IDAgMTAwIDEuNS43NS43NSAwIDAwMC0xLjV6TTcuNDcgNS44NDFhLjc1Ljc1IDAgMDExLjA2IDBMMTAuMTYgNy40N2EuNzUuNzUgMCAwMTAgMS4wNkw4LjUzIDEwLjE2YS43NS43NSAwIDAxLTEuMDYgMEw1Ljg0IDguNTNhLjc1Ljc1IDAgMDEwLTEuMDZMNy40NyA1Ljg0eiIgZmlsbC1ydWxlPSJldmVub2RkIiBmaWxsPSIjZmZmIi8+PC9zdmc+;fontColor=#FFFFFF;fontStyle=1;fontFamily=Tahoma;" parent="1" vertex="1">
          <mxGeometry x="967" y="150.00000000000003" width="40" height="40" as="geometry" />
        </mxCell>
        <mxCell id="baI93Eb9KqTFqQ3-h29e-63" value="ML Models" style="shape=image;verticalLabelPosition=bottom;labelBackgroundColor=none;verticalAlign=top;aspect=fixed;imageAspect=0;editableCssRules=.*;image=data:image/svg+xml,PHN2ZyB4bWxuczp4bGluaz0iaHR0cDovL3d3dy53My5vcmcvMTk5OS94bGluayIgeG1sbnM9Imh0dHA6Ly93d3cudzMub3JnLzIwMDAvc3ZnIiB4bWw6c3BhY2U9InByZXNlcnZlIiB2aWV3Qm94PSIwIDAgMzIgMzIiIGlkPSJMYXllcl8xIiB2ZXJzaW9uPSIxLjEiIGZpbGw9IiNmZmYiIHdpZHRoPSIzMiIgaGVpZ2h0PSIzMiI+JiN4YTs8cGF0aCBkPSJNMTIsMS42NGMtMC4wMDIsMC0wLjAwNCwwLTAuMDA2LDBjLTEuNDczLDAtMi42OTEsMC43NTktMy4yMzksMmgtMC40OCYjMTA7JiM5O2MtMC4wMDMsMC0wLjAwNiwwLTAuMDA5LDBjLTEuMjcxLDAtMi40NzgsMC40MjUtMy4zOTgsMS4xOTlDMy44OTIsNS42NTksMy4zNTQsNi43OSwzLjM1Miw4LjAyMSYjMTA7JiM5O2MtMC4wMDEsMC45OTUsMC41MjYsMi4wOTcsMS4wMjUsMi43OTFjLTIuMjIzLDAuNzctMy43MzQsMi42MzMtMy43MzcsNC42ODhjLTAuMDAzLDIuMDQ2LDEuNTA3LDMuOTEsMy43MzQsNC42ODcmIzEwOyYjOTtjLTAuNTA2LDAuNjkyLTEuMDQ0LDEuNzg4LTEuMDQ1LDIuNzY2Yy0wLjAwMywyLjQyNiwyLjIxNSw0LjQwMyw0Ljk0Nyw0LjQwOGgwLjQ4YzAuNTQzLDEuMjM4LDEuNzY0LDEuOTk4LDMuMjQ0LDImIzEwOyYjOTtjMC4wMDIsMCwwLjAwNCwwLDAuMDA3LDBjMS45NzIsMCwzLjM1MS0xLjM4MSwzLjM1NC0zLjM2VjVDMTUuMzYzLDMuMDI1LDEzLjk4MiwxLjY0MywxMiwxLjY0eiBNMTIsMTguNjQmIzEwOyYjOTtjLTAuMzUzLDAtMC42NC0wLjI4Ny0wLjY0LTAuNjRzMC4yODctMC42NCwwLjY0LTAuNjRzMC42NCwwLjI4NywwLjY0LDAuNjRTMTIuMzUzLDE4LjY0LDEyLDE4LjY0eiBNMTQuNjQsMTMuNjRoLTIuMjhWNy4zMDUmIzEwOyYjOTtjMC41NzUtMC4xNTksMS0wLjY4MSwxLTEuMzA1YzAtMC43NS0wLjYxLTEuMzYtMS4zNi0xLjM2UzEwLjY0LDUuMjUsMTAuNjQsNmMwLDAuNjI1LDAuNDI1LDEuMTQ2LDEsMS4zMDV2Ni4zMzVIMTAmIzEwOyYjOTtjLTAuMDAxLDAtMC4wMDEsMC0wLjAwMiwwQzkuMiwxMy42NCw4LjY0MSwxNC4xOTksOC42NCwxNXYwLjY0SDYuMzA1Yy0wLjE1OS0wLjU3NS0wLjY4MS0xLTEuMzA1LTFjLTAuNzUsMC0xLjM2LDAuNjEtMS4zNiwxLjM2JiMxMDsmIzk7UzQuMjUsMTcuMzYsNSwxNy4zNmMwLjYyNSwwLDEuMTQ3LTAuNDI2LDEuMzA1LTFIOC42NHY1LjgzNGMtMC41NzUsMC4xNTktMSwwLjY4MS0xLDEuMzA2YzAsMC43NSwwLjYxLDEuMzYsMS4zNiwxLjM2JiMxMDsmIzk7czEuMzYtMC42MSwxLjM2LTEuMzZjMC0wLjYyNS0wLjQyNS0xLjE0Ny0xLTEuMzA2VjE1YzAuMDAxLTAuNDAxLDAuMjM5LTAuNjQxLDAuNjM5LTAuNjQxSDEwaDQuNjR2MTEuNjM5JiMxMDsmIzk7Yy0wLjAwMywxLjQ1Ni0wLjkwOCwyLjQ2LTIuMjgsMi42MXYtOS4zMDNjMC41NzUtMC4xNTksMS0wLjY4MSwxLTEuMzA2YzAtMC43NS0wLjYxLTEuMzYtMS4zNi0xLjM2cy0xLjM2LDAuNjEtMS4zNiwxLjM2JiMxMDsmIzk7YzAsMC42MjUsMC40MjUsMS4xNDcsMSwxLjMwNnY5LjMxYy0xLjEwMy0wLjExNC0xLjk1MS0wLjc0Mi0yLjMtMS43MzVDOS4yODksMjYuNzM2LDkuMTUzLDI2LjY0LDksMjYuNjRIOC4yNzYmIzEwOyYjOTtjLTIuMDM2LTAuMDAzLTQuMjMtMS40MTMtNC4yMjgtMy42ODZjMC4wMDItMC45NjYsMC43MTQtMi4yMDksMS4yMDYtMi42OTljMC4wOTItMC4wOTEsMC4xMjctMC4yMjUsMC4wOTMtMC4zNSYjMTA7JiM5O3MtMC4xMzItMC4yMjItMC4yNTctMC4yNTRjLTIuMTk5LTAuNTY2LTMuNzMzLTIuMjczLTMuNzMtNC4xNTFjMC4wMDMtMS44NzYsMS41MjItMy41NzMsMy42OTUtNC4xNDFoMi42NCYjMTA7JiM5O2MwLjE1OSwwLjU3NSwwLjY4MSwxLDEuMzA1LDFjMC43NSwwLDEuMzYtMC42MSwxLjM2LTEuMzZTOS43NSw5LjY0LDksOS42NGMtMC42MjUsMC0xLjE0NiwwLjQyNS0xLjMwNSwxSDUuMTYyJiMxMDsmIzk7QzQuNjg1LDEwLjA5OSw0LjA3LDguOTQ5LDQuMDcxLDguMDIyQzQuMDczLDcuMDA2LDQuNTIsNi4wNzIsNS4zMzIsNS4zOWMwLjc3OS0wLjY1NSwxLjg0OS0xLjAzLDIuOTM2LTEuMDMmIzEwOyYjOTtjMC4wMDIsMCwwLjAwNSwwLDAuMDA4LDBIOWMwLjE1MiwwLDAuMjg4LTAuMDk2LDAuMzM5LTAuMjM5YzAuMzkyLTEuMTAzLDEuMzg0LTEuNzYxLDIuNjU1LTEuNzYxYzAuMDAyLDAsMC4wMDMsMCwwLjAwNSwwJiMxMDsmIzk7QzEzLjU4MiwyLjM2MywxNC42NDMsMy40MjMsMTQuNjQsNVYxMy42NHogTTEyLDYuNjRjLTAuMzUzLDAtMC42NC0wLjI4Ny0wLjY0LTAuNjRTMTEuNjQ3LDUuMzYsMTIsNS4zNlMxMi42NCw1LjY0NywxMi42NCw2JiMxMDsmIzk7UzEyLjM1Myw2LjY0LDEyLDYuNjR6IE05LDIyLjg2YzAuMzUzLDAsMC42NCwwLjI4NywwLjY0LDAuNjRTOS4zNTMsMjQuMTQsOSwyNC4xNHMtMC42NC0wLjI4Ny0wLjY0LTAuNjRTOC42NDcsMjIuODYsOSwyMi44NnomIzEwOyYjOTsgTTUuNjQsMTZjMCwwLjM1My0wLjI4NywwLjY0LTAuNjQsMC42NFM0LjM2LDE2LjM1Myw0LjM2LDE2UzQuNjQ3LDE1LjM2LDUsMTUuMzZTNS42NCwxNS42NDcsNS42NCwxNnogTTguMzYsMTEmIzEwOyYjOTtjMC0wLjM1MywwLjI4Ny0wLjY0LDAuNjQtMC42NFM5LjY0LDEwLjY0Nyw5LjY0LDExUzkuMzUzLDExLjY0LDksMTEuNjRTOC4zNiwxMS4zNTMsOC4zNiwxMXogTTMxLjM2LDE1LjUmIzEwOyYjOTtjMC4wMDItMi4wNDYtMS41MDgtMy45MDktMy43MzQtNC42ODdjMC41MDctMC42OTIsMS4wNDQtMS43ODgsMS4wNDYtMi43NjdjMC4wMDItMS4yMzEtMC41NC0yLjM2NS0xLjUyNi0zLjE5MyYjMTA7JiM5O2MtMC45MTctMC43Ny0yLjE2My0xLjIxMi0zLjQyMS0xLjIxNGgtMC40OGMtMC41NDQtMS4yMzgtMS43NjQtMS45OTgtMy4yNDMtMmMtMC4wMDMsMC0wLjAwNSwwLTAuMDA4LDAmIzEwOyYjOTtjLTAuOTcyLDAtMS44MDgsMC4zMjMtMi40MTgsMC45MzNDMTYuOTY1LDMuMTg1LDE2LjY0Miw0LjAyMywxNi42NCw1djIwLjk5OWMtMC4wMDMsMS45NzYsMS4zNzgsMy4zNTcsMy4zNTksMy4zNjEmIzEwOyYjOTtjMC4wMDMsMCwwLjAwNSwwLDAuMDA3LDBjMS40NzMsMCwyLjY5LTAuNzYsMy4yMzgtMmgwLjQ3OWMwLjAwNCwwLDAuMDA3LDAsMC4wMSwwYzEuMjcxLDAsMi40NzgtMC40MjYsMy4zOTgtMS4xOTkmIzEwOyYjOTtjMC45NzctMC44MiwxLjUxNS0xLjk1LDEuNTE3LTMuMTgyYzAuMDAxLTAuOTk1LTAuNTI2LTIuMDk4LTEuMDI1LTIuNzkxQzI5Ljg0NywxOS40MTgsMzEuMzU3LDE3LjU1NSwzMS4zNiwxNS41eiBNMjAsMTIuMzYmIzEwOyYjOTtjMC4zNTMsMCwwLjY0LDAuMjg3LDAuNjQsMC42NHMtMC4yODcsMC42NC0wLjY0LDAuNjRzLTAuNjQtMC4yODctMC42NC0wLjY0UzE5LjY0NywxMi4zNiwyMCwxMi4zNnogTTI2Ljk0NiwxOS42NGgtMi42NDEmIzEwOyYjOTtjLTAuMTU5LTAuNTc1LTAuNjgxLTEtMS4zMDYtMWMtMC43NSwwLTEuMzYsMC42MS0xLjM2LDEuMzZzMC42MSwxLjM2LDEuMzYsMS4zNmMwLjYyNCwwLDEuMTQ3LTAuNDI1LDEuMzA2LTFoMi41MzMmIzEwOyYjOTtjMC40NzYsMC41NDEsMS4wOTEsMS42OTEsMS4wODksMi42MThjLTAuMDAxLDEuMDE2LTAuNDQ4LDEuOTUtMS4yNiwyLjYzMWMtMC43ODEsMC42NTctMS44NjUsMS4wMS0yLjk0MywxLjAzSDIzJiMxMDsmIzk7Yy0wLjE1MiwwLTAuMjg4LDAuMDk3LTAuMzM5LDAuMjM5Yy0wLjM5MywxLjEwNC0xLjM4NSwxLjc2MS0yLjY1NSwxLjc2MWMtMC4wMDIsMC0wLjAwNCwwLTAuMDA1LDAmIzEwOyYjOTtjLTAuNzgxLTAuMDAxLTEuNDQ1LTAuMjUyLTEuOTE5LTAuNzI1QzE3LjYwOCwyNy40NDEsMTcuMzU4LDI2Ljc4LDE3LjM2LDI2di04LjY0aDIuMjc5djYuMzM0Yy0wLjU3NSwwLjE1OS0xLDAuNjgxLTEsMS4zMDYmIzEwOyYjOTtjMCwwLjc1LDAuNjEsMS4zNiwxLjM2LDEuMzZzMS4zNi0wLjYxLDEuMzYtMS4zNmMwLTAuNjI0LTAuNDI1LTEuMTQ3LTEtMS4zMDZWMTcuMzZoMS42MzljMC4wMDEsMCwwLjAwMiwwLDAuMDAzLDAmIzEwOyYjOTtjMC43OTksMCwxLjM1Ni0wLjU1OSwxLjM1OC0xLjM2di0wLjY0aDIuMzM0YzAuMTU5LDAuNTc1LDAuNjgxLDEsMS4zMDYsMWMwLjc1LDAsMS4zNi0wLjYxLDEuMzYtMS4zNnMtMC42MS0xLjM2LTEuMzYtMS4zNiYjMTA7JiM5O2MtMC42MjUsMC0xLjE0NywwLjQyNS0xLjMwNiwxSDIzLjM2VjguODA1YzAuNTc1LTAuMTU5LDEtMC42ODEsMS0xLjMwNWMwLTAuNzUtMC42MS0xLjM2LTEuMzYtMS4zNnMtMS4zNiwwLjYxLTEuMzYsMS4zNiYjMTA7JiM5O2MwLDAuNjI0LDAuNDI1LDEuMTQ2LDEsMS4zMDVWMTZjMCwwLjQwMS0wLjIzOCwwLjY0MS0wLjYzOCwwLjY0MWMtMC4wMDEsMC0wLjAwMSwwLTAuMDAyLDBoLTQuNjRWNSYjMTA7JiM5O2MwLjAwMS0wLjc4MSwwLjI1Mi0xLjQ0NSwwLjcyNS0xLjkxOGMwLjM5Ny0wLjM5OCwwLjkzMy0wLjYyNywxLjU1NS0wLjY5M3Y5LjMwNWMtMC41NzUsMC4xNTktMSwwLjY4MS0xLDEuMzA1JiMxMDsmIzk7YzAsMC43NSwwLjYxLDEuMzYsMS4zNiwxLjM2czEuMzYtMC42MSwxLjM2LTEuMzZjMC0wLjYyNC0wLjQyNS0xLjE0Ni0xLTEuMzA1di05LjMxYzEuMTAzLDAuMTE1LDEuOTUxLDAuNzQyLDIuMywxLjczNiYjMTA7JiM5O2MwLjA1MSwwLjE0NCwwLjE4OCwwLjI0LDAuMzQsMC4yNGgwLjcyNGMxLjA5MiwwLjAwMSwyLjE3LDAuMzgzLDIuOTU5LDEuMDQ1YzAuODIsMC42ODksMS4yNzEsMS42MjYsMS4yNjksMi42NDEmIzEwOyYjOTtjLTAuMDAxLDAuOTY2LTAuNzE0LDIuMjA5LTEuMjA1LDIuNjk5Yy0wLjA5MiwwLjA5MS0wLjEyNywwLjIyNS0wLjA5NCwwLjM1YzAuMDM0LDAuMTI1LDAuMTMzLDAuMjIyLDAuMjU4LDAuMjU0JiMxMDsmIzk7YzIuMTk4LDAuNTY3LDMuNzMyLDIuMjc0LDMuNzI5LDQuMTUxQzMwLjYzOCwxNy4zNzQsMjkuMTIsMTkuMDcsMjYuOTQ2LDE5LjY0eiBNMjMuNjQsMjBjMCwwLjM1My0wLjI4NywwLjY0LTAuNjQsMC42NCYjMTA7JiM5O3MtMC42NC0wLjI4Ny0wLjY0LTAuNjRzMC4yODctMC42NCwwLjY0LTAuNjRTMjMuNjQsMTkuNjQ3LDIzLjY0LDIweiBNMjAsMjQuMzZjMC4zNTMsMCwwLjY0LDAuMjg3LDAuNjQsMC42NHMtMC4yODcsMC42NC0wLjY0LDAuNjQmIzEwOyYjOTtzLTAuNjQtMC4yODctMC42NC0wLjY0UzE5LjY0NywyNC4zNiwyMCwyNC4zNnogTTIzLDguMTRjLTAuMzUzLDAtMC42NC0wLjI4Ny0wLjY0LTAuNjRTMjIuNjQ3LDYuODYsMjMsNi44NnMwLjY0LDAuMjg3LDAuNjQsMC42NCYjMTA7JiM5O1MyMy4zNTMsOC4xNCwyMyw4LjE0eiBNMjYuMzYsMTVjMC0wLjM1MywwLjI4Ny0wLjY0LDAuNjQtMC42NHMwLjY0LDAuMjg3LDAuNjQsMC42NHMtMC4yODcsMC42NC0wLjY0LDAuNjRTMjYuMzYsMTUuMzUzLDI2LjM2LDE1eiIgaWQ9Im1hY2hpbmUtLWxlYXJuaW5nLS0wMV8xXyIvPiYjeGE7PHJlY3QgaGVpZ2h0PSIzMiIgd2lkdGg9IjMyIiBzdHlsZT0iZmlsbDpub25lOyIgaWQ9Il9UcmFuc3BhcmVudF9SZWN0YW5nbGUiLz4mI3hhOzwvc3ZnPg==;fontColor=#FFFFFF;fontStyle=1;fontFamily=Tahoma;" parent="1" vertex="1">
          <mxGeometry x="1127" y="330" width="40" height="40" as="geometry" />
        </mxCell>
        <mxCell id="baI93Eb9KqTFqQ3-h29e-64" value="Dashboards" style="shape=image;verticalLabelPosition=bottom;labelBackgroundColor=none;verticalAlign=top;aspect=fixed;imageAspect=0;editableCssRules=.*;image=data:image/svg+xml,PHN2ZyB4bWxucz0iaHR0cDovL3d3dy53My5vcmcvMjAwMC9zdmciIGlkPSJMYXllcl8xIiBkYXRhLW5hbWU9IkxheWVyIDEiIHZpZXdCb3g9IjEuMDAwMDAxNDMwNTExNDc0NiAxLjAwMDAwMTQzMDUxMTQ3NDYgNDYgNDYiIGhlaWdodD0iNzY2LjY2NjY2NjY2NjY2NjciIHdpZHRoPSI3NjYuNjY2NjY2NjY2NjY2NyI+PGRlZnM+PHN0eWxlPi5jbHMtMSwuY2xzLTJ7ZmlsbDpub25lO3N0cm9rZTojZmZmZmZmO3N0cm9rZS1saW5lam9pbjpyb3VuZDtzdHJva2Utd2lkdGg6MnB4O30uY2xzLTJ7c3Ryb2tlLWxpbmVjYXA6cm91bmQ7fTwvc3R5bGU+PC9kZWZzPjx0aXRsZS8+PHJlY3QgeT0iMSIgeD0iMSIgd2lkdGg9IjQ2IiB0cmFuc2Zvcm09InRyYW5zbGF0ZSg0OCA0OCkgcm90YXRlKDE4MCkiIHJ5PSI0IiByeD0iNCIgaGVpZ2h0PSI0NiIgY2xhc3M9ImNscy0xIi8+PHJlY3QgeT0iMjIiIHg9IjQiIHdpZHRoPSI3IiBoZWlnaHQ9IjIyIiBjbGFzcz0iY2xzLTIiLz48cmVjdCB5PSIyOCIgeD0iMTUiIHdpZHRoPSI3IiBoZWlnaHQ9IjE2IiBjbGFzcz0iY2xzLTIiLz48cmVjdCB5PSIxOSIgeD0iMjYiIHdpZHRoPSI3IiBoZWlnaHQ9IjI1IiBjbGFzcz0iY2xzLTIiLz48cmVjdCB5PSIyMyIgeD0iMzciIHdpZHRoPSI3IiBoZWlnaHQ9IjIxIiBjbGFzcz0iY2xzLTIiLz48Y2lyY2xlIHI9IjIiIGN5PSIxNCIgY3g9IjciIGNsYXNzPSJjbHMtMiIvPjxjaXJjbGUgcj0iMiIgY3k9IjIwIiBjeD0iMTkiIGNsYXNzPSJjbHMtMiIvPjxjaXJjbGUgcj0iMiIgY3k9IjExIiBjeD0iMzAiIGNsYXNzPSJjbHMtMiIvPjxjaXJjbGUgcj0iMiIgY3k9IjE1IiBjeD0iNDEiIGNsYXNzPSJjbHMtMiIvPjxsaW5lIHkyPSIxOSIgeTE9IjE1IiB4Mj0iMTciIHgxPSI5IiBjbGFzcz0iY2xzLTIiLz48bGluZSB5Mj0iMTIiIHkxPSIxOSIgeDI9IjI4IiB4MT0iMjEiIGNsYXNzPSJjbHMtMiIvPjxsaW5lIHkyPSIxNCIgeTE9IjEyIiB4Mj0iMzkiIHgxPSIzMiIgY2xhc3M9ImNscy0yIi8+PC9zdmc+;fontColor=#FFFFFF;fontStyle=1;fontFamily=Tahoma;" parent="1" vertex="1">
          <mxGeometry x="957" y="250.00000000000003" width="40" height="40" as="geometry" />
        </mxCell>
        <mxCell id="baI93Eb9KqTFqQ3-h29e-65" value="Notebooks" style="shape=image;verticalLabelPosition=bottom;labelBackgroundColor=none;verticalAlign=top;aspect=fixed;imageAspect=0;editableCssRules=.*;image=data:image/svg+xml,PHN2ZyB4bWxucz0iaHR0cDovL3d3dy53My5vcmcvMjAwMC9zdmciIHZpZXdCb3g9IjAgMCAzNCA0NiIgaGVpZ2h0PSI4MDAiIHdpZHRoPSI1OTEuMzA0MzQ3ODI2MDg2OSIgZmlsbD0iI2ZmZiI+JiN4YTsgIDxwYXRoIGZpbGwtcnVsZT0iZXZlbm9kZCIgdHJhbnNmb3JtPSJ0cmFuc2xhdGUoLTcgLTEpIiBkPSJNNDEsNDZoMGExLDEsMCwwLDEtMSwxSDEyYTUsNSwwLDAsMS01LTVWNmE1LDUsMCwwLDEsNS01SDM4YTEsMSwwLDAsMSwxLDFoMFY5aDFhMSwxLDAsMCwxLDEsMWgwWk05LDQySDlhMywzLDAsMCwwLDMsM2gzVjExSDEyQTQuOTYyLDQuOTYyLDAsMCwxLDksOS45NzhaTTM3LDlWM0gxMmEzLDMsMCwwLDAsMCw2Wm0yLDJIMTdWNDVIMzlaTTEyLDdhMSwxLDAsMCwxLDAtMkgzNGExLDEsMCwwLDEsMCwyWiIgZGF0YS1uYW1lPSIxMS5Ob3RlYm9vayIgaWQ9Il8xMS5Ob3RlYm9vayIvPiYjeGE7PC9zdmc+;fontColor=#FFFFFF;fontStyle=1;fontFamily=Tahoma;" parent="1" vertex="1">
          <mxGeometry x="1017" y="330" width="29.55" height="40" as="geometry" />
        </mxCell>
        <mxCell id="baI93Eb9KqTFqQ3-h29e-66" value="Data Files" style="shape=image;verticalLabelPosition=bottom;labelBackgroundColor=none;verticalAlign=top;aspect=fixed;imageAspect=0;editableCssRules=.*;image=data:image/svg+xml,PHN2ZyB4bWxucz0iaHR0cDovL3d3dy53My5vcmcvMjAwMC9zdmciIGZpbGw9Im5vbmUiIHZpZXdCb3g9IjQgMiAxNiAyMCIgaGVpZ2h0PSI2NjYuNjY2NjY2NjY2NjY2NyIgd2lkdGg9IjUzMy4zMzMzMzMzMzMzMzM0Ij4mI3hhOzxwYXRoIHN0cm9rZS1saW5lam9pbj0icm91bmQiIHN0cm9rZS1saW5lY2FwPSJyb3VuZCIgc3Ryb2tlLXdpZHRoPSIyIiBzdHJva2U9IiNmZmYiIGQ9Ik0xOSA5VjE3LjhDMTkgMTguOTIwMSAxOSAxOS40ODAyIDE4Ljc4MiAxOS45MDhDMTguNTkwMyAyMC4yODQzIDE4LjI4NDMgMjAuNTkwMyAxNy45MDggMjAuNzgyQzE3LjQ4MDIgMjEgMTYuOTIwMSAyMSAxNS44IDIxSDguMkM3LjA3OTg5IDIxIDYuNTE5ODQgMjEgNi4wOTIwMiAyMC43ODJDNS43MTU2OSAyMC41OTAzIDUuNDA5NzMgMjAuMjg0MyA1LjIxNzk5IDE5LjkwOEM1IDE5LjQ4MDIgNSAxOC45MjAxIDUgMTcuOFY2LjJDNSA1LjA3OTg5IDUgNC41MTk4NCA1LjIxNzk5IDQuMDkyMDJDNS40MDk3MyAzLjcxNTY5IDUuNzE1NjkgMy40MDk3MyA2LjA5MjAyIDMuMjE3OTlDNi41MTk4NCAzIDcuMDc5OSAzIDguMiAzSDEzTTE5IDlMMTMgM00xOSA5SDE0QzEzLjQ0NzcgOSAxMyA4LjU1MjI4IDEzIDhWMyIvPiYjeGE7PC9zdmc+;fontColor=#FFFFFF;fontStyle=1;fontFamily=Tahoma;" parent="1" vertex="1">
          <mxGeometry x="1181.03" y="150" width="31.95" height="40" as="geometry" />
        </mxCell>
        <mxCell id="baI93Eb9KqTFqQ3-h29e-67" value="Data&#xa;Discoverability" style="shape=image;verticalLabelPosition=bottom;labelBackgroundColor=none;verticalAlign=top;aspect=fixed;imageAspect=0;editableCssRules=.*;image=data:image/svg+xml,PHN2ZyB4bWxucz0iaHR0cDovL3d3dy53My5vcmcvMjAwMC9zdmciIGhlaWdodD0iNTk5Ljk5ODUzNTE1NjI1IiB3aWR0aD0iNTk5Ljk5OTI2NzU3ODEyNSIgaWQ9InN2Zzk3MjQiIHZlcnNpb249IjEuMSIgdmlld0JveD0iMC4wMDA2ODA1NzQ3Mzk4MTc1Mjk5IDAuMDAwNjYxMTYwNDQ3NjM0NzU2NiA1OTkuOTk5MjY3NTc4MTI1IDU5OS45OTg1MzUxNTYyNSI+JiN4YTsgIDxkZWZzIGlkPSJkZWZzOTcyOCIvPiYjeGE7ICAmI3hhOyAgICAmI3hhOyAgICAmI3hhOyAgICAmI3hhOyAgICAmI3hhOyAgICAmI3hhOyAgJiN4YTsgICYjeGE7ICA8ZyBzdHlsZT0ic3Ryb2tlLXdpZHRoOjEuMDUxMDMiIHRyYW5zZm9ybT0ibWF0cml4KDAuOTUxNzMyMDUsMCwwLDAuOTUxMTU3ODcsMTMuOTAxMTc0LDEyLjE2ODc5NCkiIGlkPSJnMTA0NDkiPiYjeGE7ICAgIDxwYXRoIGlkPSJwYXRoMzk3IiBkPSJtIDIwNi4wNDQ5MiwtMTIuNzkyOTY5IGMgLTEyMS4zODA2NzUsMCAtMjIwLjY1MDM4OSw5OS4zNjI4NCAtMjIwLjY1MDM4OSwyMjAuNzgzMTk5IDAsMTIxLjQyMDM3IDk5LjI2OTcxNCwyMjAuNzgzMjEgMjIwLjY1MDM4OSwyMjAuNzgzMjEgMTIxLjM4MDY4LDAgMjIwLjY1MDM5LC05OS4zNjI4NCAyMjAuNjUwMzksLTIyMC43ODMyMSAwLC0xMjEuNDIwMzU5IC05OS4yNjk3MSwtMjIwLjc4MzE5OSAtMjIwLjY1MDM5LC0yMjAuNzgzMTk5IHogbSAwLDg0LjA4MjAzMSBjIDc1LjkwNTIzLDEwZS03IDEzNi41NjY0MSw2MC42ODg1MTggMTM2LjU2NjQxLDEzNi43MDExNjggMCw3Ni4wMTI2NiAtNjAuNjYxMTgsMTM2LjcwMTE4IC0xMzYuNTY2NDEsMTM2LjcwMTE4IC03NS45MDUyMiwwIC0xMzYuNTY4MzU3LC02MC42ODg1MiAtMTM2LjU2ODM1OCwtMTM2LjcwMTE4IDEwZS03LC03Ni4wMTI2NSA2MC42NjMxMzgsLTEzNi43MDExNjggMTM2LjU2ODM1OCwtMTM2LjcwMTE2OCB6IiBzdHlsZT0iY29sb3I6I2ZmZjtmaWxsOiNmZmY7c3Ryb2tlLWxpbmVjYXA6cm91bmQ7c3Ryb2tlLWxpbmVqb2luOnJvdW5kOy1pbmtzY2FwZS1zdHJva2U6bm9uZTtwYWludC1vcmRlcjpzdHJva2UgZmlsbCBtYXJrZXJzIi8+JiN4YTsgICAgPGcgdHJhbnNmb3JtPSJtYXRyaXgoMS4zODA3NTUxLDAsMCwxLjI3MDA4ODgsMjczLjYwMDE0LDI2My45OTc2OCkiIGlkPSJwYXRoMTAwMjYiLz4mI3hhOyAgICA8ZyBzdHlsZT0ic3Ryb2tlLXdpZHRoOjUwLjY5NTEiIHRyYW5zZm9ybT0ibWF0cml4KDEuNTA5MjMwMSwwLDAsMS4zOTU1NTU1LDM2Ljc3NDA0OCwtOS40NTAzOTMzKSIgaWQ9ImcxMTMxNCIvPiYjeGE7ICAgIDxwYXRoIGlkPSJwYXRoNDUzIiBkPSJtIDMzMi4xNTYyNSwyOTIuMTQ2NDggYSA0Mi4wNDEzMDIsNDIuMDQxMzAyIDAgMCAwIC0yOS43MzI0MiwxMi4zMDQ2OSA0Mi4wNDEzMDIsNDIuMDQxMzAyIDAgMCAwIC0wLjAxNzYsNTkuNDU1MDggbCAyNDEuNjM4NjcsMjQxLjc4NzExIGEgNDIuMDQxMzAyLDQyLjA0MTMwMiAwIDAgMCA1OS40NTUwOCwwLjAxNzYgNDIuMDQxMzAyLDQyLjA0MTMwMiAwIDAgMCAwLjAxOTUsLTU5LjQ1NTA4IEwgMzYxLjg3ODkxLDMwNC40NzA3IGEgNDIuMDQxMzAyLDQyLjA0MTMwMiAwIDAgMCAtMjkuNzIyNjYsLTEyLjMyNDIyIHoiIHN0eWxlPSJjb2xvcjojZmZmO2ZpbGw6I2ZmZjtzdHJva2UtbGluZWNhcDpyb3VuZDstaW5rc2NhcGUtc3Ryb2tlOm5vbmUiLz4mI3hhOyAgICA8cGF0aCB0cmFuc2Zvcm09InNjYWxlKDEsLTEpIiBpZD0icGF0aDEwMDkiIGQ9Im0gMzAwLjQ3NjU2LC0yMjMuNzUxOTUgYSAxMC41MTAzNSwxMC41MTAzNSAwIDAgMCAtMTAuNTExNzIsMTAuNTA5NzYgYyAwLDI3LjgyMTY1IC0xMi45MzMwMSw1NC4wMzQwMSAtMzUuMDAzOSw3MC45NDkyMiAtMjIuMDcwODksMTYuOTE1MjIgLTUwLjcyNjg5LDIyLjU4MDIxIC03Ny41NjY0MSwxNS4zMzM5OSBhIDEwLjUxMDM1LDEwLjUxMDM1IDAgMCAwIC0xMi44ODY3Miw3LjQwNjI1IDEwLjUxMDM1LDEwLjUxMDM1IDAgMCAwIDcuNDA4MjEsMTIuODg2NzEgYyAzMy4xNDEzOSw4Ljk0NzYzNCA2OC41ODIxLDEuOTQxMSA5NS44MzIwMywtMTguOTQzMzYgMjcuMjQ5OTMsLTIwLjg4NDQ1IDQzLjIzODI4LC01My4yOTA5OSA0My4yMzgyOCwtODcuNjMyODEgYSAxMC41MTAzNSwxMC41MTAzNSAwIDAgMCAtMTAuNTA5NzcsLTEwLjUwOTc2IHoiIHN0eWxlPSJjb2xvcjojZmZmO2ZpbGw6I2ZmZjtzdHJva2UtbGluZWNhcDpyb3VuZDtzdHJva2UtbGluZWpvaW46cm91bmQ7LWlua3NjYXBlLXN0cm9rZTpub25lO3BhaW50LW9yZGVyOnN0cm9rZSBmaWxsIG1hcmtlcnMiLz4mI3hhOyAgPC9nPiYjeGE7PC9zdmc+;fontColor=#FFFFFF;fontStyle=1;fontFamily=Tahoma;" parent="1" vertex="1">
          <mxGeometry x="1069.6100000000001" y="90.00000000000003" width="40" height="40" as="geometry" />
        </mxCell>
        <mxCell id="baI93Eb9KqTFqQ3-h29e-69" value="Data Marketplace" style="shape=image;verticalLabelPosition=bottom;labelBackgroundColor=none;verticalAlign=top;aspect=fixed;imageAspect=0;editableCssRules=.*;image=data:image/svg+xml,PHN2ZyB4bWxucz0iaHR0cDovL3d3dy53My5vcmcvMjAwMC9zdmciIHZpZXdCb3g9IjMuMTE1MjEwNTMzMTQyMDkgNSAyNS44NTM1NTM3NzE5NzI2NTYgMjMiIGZpbGw9IiNmZmYiIHdpZHRoPSIyNS44NTM1NTM3NzE5NzI2NTYiIGhlaWdodD0iMjMiPjx0aXRsZS8+PHBhdGggZD0iTTI4LjkwOCwxMi41NzFhLjk1Mi45NTIsMCwwLDAtLjEtLjE2NiwzLjE0NiwzLjE0NiwwLDAsMC0uMTE4LS40MjNjLS4wMDYtLjAxNi0uMDEyLS4wMzItLjAyLS4wNDhMMjUuOTE3LDUuNkExLDEsMCwwLDAsMjUsNUg3YTEsMSwwLDAsMC0uOTE3LjZsLTIuNzcsNi4zODFhMi44NDEsMi44NDEsMCwwLDAsMCwyLjA4M0E0Ljc1LDQuNzUsMCwwLDAsNiwxNi42MDlWMjdhMSwxLDAsMCwwLDEsMUgyNWExLDEsMCwwLDAsMS0xVjE2LjYwOWE0Ljc0OSw0Ljc0OSwwLDAsMCwyLjY4Ny0yLjU0MywyLjYxNCwyLjYxNCwwLDAsMCwuMTYzLS42NTVBMS4wNTcsMS4wNTcsMCwwLDAsMjguOTA4LDEyLjU3MVpNMTMsMjZWMjBoMnY2Wm00LDBWMjBoMnY2Wm03LDBIMjFWMTlhMSwxLDAsMCwwLTEtMUgxMmExLDEsMCwwLDAtMSwxdjdIOFYxN2E1LjIsNS4yLDAsMCwwLDQtMS44LDUuMzM5LDUuMzM5LDAsMCwwLDgsMEE1LjIsNS4yLDAsMCwwLDI0LDE3Wm0yLjgzNy0xMi43QTMuMDE1LDMuMDE1LDAsMCwxLDI0LDE1YTIuNzg4LDIuNzg4LDAsMCwxLTMtMi41LDEsMSwwLDAsMC0yLDBBMi43ODgsMi43ODgsMCwwLDEsMTYsMTVhMi43ODgsMi43ODgsMCwwLDEtMy0yLjUsMSwxLDAsMCwwLTIsMEEyLjc4OCwyLjc4OCwwLDAsMSw4LDE1YTMuMDE2LDMuMDE2LDAsMCwxLTIuODM4LTEuNy44MzYuODM2LDAsMCwxLDAtLjU3MUw3LjY1Niw3SDI0LjM0NGwyLjQ3Nyw1LjdBLjg1OC44NTgsMCwwLDEsMjYuODM3LDEzLjNaIi8+PC9zdmc+;fontColor=#FFFFFF;fontStyle=1;fontFamily=Tahoma;" parent="1" vertex="1">
          <mxGeometry x="1064.3899999999999" y="223.25000000000003" width="45.22" height="40" as="geometry" />
        </mxCell>
        <mxCell id="baI93Eb9KqTFqQ3-h29e-70" value="" style="group" parent="1" vertex="1" connectable="0">
          <mxGeometry x="384" y="265" width="89.68" height="45" as="geometry" />
        </mxCell>
        <mxCell id="baI93Eb9KqTFqQ3-h29e-71" value="" style="html=1;shadow=0;dashed=0;align=center;verticalAlign=middle;shape=mxgraph.arrows2.uTurnArrow;dy=2.38;arrowHead=23.14;dx2=11.11;fillColor=#666666;strokeColor=none;fontColor=#ffffff;" parent="baI93Eb9KqTFqQ3-h29e-70" vertex="1">
          <mxGeometry width="22.68" height="35" as="geometry" />
        </mxCell>
        <mxCell id="baI93Eb9KqTFqQ3-h29e-72" value="&lt;strong style=&quot;--tw-border-spacing-x: 0; --tw-border-spacing-y: 0; --tw-translate-x: 0; --tw-translate-y: 0; --tw-rotate: 0; --tw-skew-x: 0; --tw-skew-y: 0; --tw-scale-x: 1; --tw-scale-y: 1; --tw-pan-x: ; --tw-pan-y: ; --tw-pinch-zoom: ; --tw-scroll-snap-strictness: proximity; --tw-gradient-from-position: ; --tw-gradient-via-position: ; --tw-gradient-to-position: ; --tw-ordinal: ; --tw-slashed-zero: ; --tw-numeric-figure: ; --tw-numeric-spacing: ; --tw-numeric-fraction: ; --tw-ring-inset: ; --tw-ring-offset-width: 0px; --tw-ring-offset-color: light-dark(#fff, #000000); --tw-ring-color: light-dark(rgba(59,130,246,.5), #4c89ec); --tw-ring-offset-shadow: 0 0 #0000; --tw-ring-shadow: 0 0 #0000; --tw-shadow: 0 0 #0000; --tw-shadow-colored: 0 0 #0000; --tw-blur: ; --tw-brightness: ; --tw-contrast: ; --tw-grayscale: ; --tw-hue-rotate: ; --tw-invert: ; --tw-saturate: ; --tw-sepia: ; --tw-drop-shadow: ; --tw-backdrop-blur: ; --tw-backdrop-brightness: ; --tw-backdrop-contrast: ; --tw-backdrop-grayscale: ; --tw-backdrop-hue-rotate: ; --tw-backdrop-invert: ; --tw-backdrop-opacity: ; --tw-backdrop-saturate: ; --tw-backdrop-sepia: ; --tw-contain-size: ; --tw-contain-layout: ; --tw-contain-paint: ; --tw-contain-style: ; box-sizing: border-box; border: 0px solid rgb(229, 231, 235); scrollbar-color: auto; scrollbar-width: auto; font-style: normal; font-variant-ligatures: normal; font-variant-caps: normal; letter-spacing: normal; orphans: 2; text-indent: 0px; text-transform: none; widows: 2; word-spacing: 0px; -webkit-text-stroke-width: 0px; white-space: normal; text-decoration-thickness: initial; text-decoration-style: initial; text-decoration-color: initial;&quot;&gt;META DATA&lt;/strong&gt;" style="text;whiteSpace=wrap;html=1;labelBackgroundColor=none;fontSize=12;fontStyle=1;fontFamily=Tahoma;verticalAlign=middle;align=center;fontColor=#808080;" parent="baI93Eb9KqTFqQ3-h29e-70" vertex="1">
          <mxGeometry x="9.319999999999993" y="10" width="72" height="20" as="geometry" />
        </mxCell>
        <mxCell id="baI93Eb9KqTFqQ3-h29e-73" value="" style="html=1;shadow=0;dashed=0;align=center;verticalAlign=middle;shape=mxgraph.arrows2.uTurnArrow;dy=2.38;arrowHead=23.14;dx2=11.11;fillColor=#666666;strokeColor=none;fontColor=#ffffff;direction=west;" parent="baI93Eb9KqTFqQ3-h29e-70" vertex="1">
          <mxGeometry x="67" y="10" width="22.68" height="35" as="geometry" />
        </mxCell>
        <mxCell id="baI93Eb9KqTFqQ3-h29e-74" value="DATA" style="html=1;shadow=0;dashed=0;align=center;verticalAlign=middle;shape=mxgraph.arrows2.arrow;dy=0;dx=10;notch=0;direction=north;fillColor=#666666;strokeColor=none;fontColor=#FFFFFF;fontFamily=Tahoma;fontStyle=1;spacing=0;spacingTop=4;" parent="1" vertex="1">
          <mxGeometry x="401.28" y="362.5" width="50.44" height="25" as="geometry" />
        </mxCell>
        <mxCell id="baI93Eb9KqTFqQ3-h29e-75" value="DATA" style="html=1;shadow=0;dashed=0;align=center;verticalAlign=middle;shape=mxgraph.arrows2.arrow;dy=0;dx=10;notch=0;direction=north;fillColor=#666666;strokeColor=none;fontColor=#FFFFFF;fontFamily=Tahoma;fontStyle=1;spacing=0;spacingTop=4;" parent="1" vertex="1">
          <mxGeometry x="401.28" y="450" width="50.44" height="25" as="geometry" />
        </mxCell>
      </root>
    </mxGraphModel>
  </diagram>
</mxfile>
